#include "hUGEDriver.h"
#include <stddef.h>

static const unsigned char order_cnt = 4;

static const unsigned char P0[] = {
    DN(C_5,2,0x000),
    DN(___,0,0x000),
    DN(___,0,0x000),
    DN(___,0,0x000),
    DN(___,0,0x000),
    DN(___,0,0x000),
    DN(___,0,0x000),
    DN(___,0,0x000),
    DN(___,0,0x000),
    DN(___,0,0x000),
    DN(G_4,2,0x000),
    DN(___,0,0x000),
    DN(C_5,2,0x000),
    DN(___,0,0x000),
    DN(D_5,2,0x000),
    DN(___,0,0x000),
    DN(Ds5,2,0x000),
    DN(___,0,0x000),
    DN(___,0,0x000),
    DN(___,0,0x000),
    DN(D_5,2,0x000),
    DN(___,0,0x000),
    DN(___,0,0x000),
    DN(___,0,0x000),
    DN(C_5,2,0x000),
    DN(___,0,0x000),
    DN(___,0,0x000),
    DN(___,0,0x000),
    DN(As4,2,0x000),
    DN(___,0,0x000),
    DN(___,0,0x000),
    DN(___,0,0x000),
    DN(Gs4,2,0x000),
    DN(___,0,0x000),
    DN(___,0,0x000),
    DN(___,0,0x000),
    DN(F_5,2,0x000),
    DN(___,0,0x000),
    DN(Ds5,2,0x000),
    DN(___,0,0x000),
    DN(___,0,0x000),
    DN(___,0,0x000),
    DN(___,0,0x000),
    DN(___,0,0x000),
    DN(___,0,0x000),
    DN(___,0,0x000),
    DN(___,0,0x000),
    DN(___,0,0x000),
    DN(___,0,0x000),
    DN(___,0,0x000),
    DN(___,0,0x000),
    DN(___,0,0x000),
    DN(___,0,0x000),
    DN(___,0,0x000),
    DN(___,0,0x000),
    DN(___,0,0x000),
    DN(D_5,2,0x000),
    DN(___,0,0x000),
    DN(___,0,0x000),
    DN(___,0,0x000),
    DN(___,0,0x000),
    DN(___,0,0x000),
    DN(___,0,0x000),
    DN(___,0,0x000),
};
static const unsigned char P1[] = {
    DN(Ds5,1,0xF04),
    DN(___,0,0x000),
    DN(___,0,0x000),
    DN(___,0,0x000),
    DN(___,0,0x000),
    DN(___,0,0x000),
    DN(___,0,0x000),
    DN(___,0,0x000),
    DN(___,0,0x000),
    DN(___,0,0x000),
    DN(C_5,1,0x000),
    DN(___,0,0x000),
    DN(Ds5,1,0x000),
    DN(___,0,0x000),
    DN(F_5,1,0x000),
    DN(___,0,0x000),
    DN(G_5,1,0x000),
    DN(___,0,0x000),
    DN(___,0,0x000),
    DN(___,0,0x000),
    DN(F_5,1,0x000),
    DN(___,0,0x000),
    DN(___,0,0x000),
    DN(___,0,0x000),
    DN(Ds5,1,0x000),
    DN(___,0,0x000),
    DN(___,0,0x000),
    DN(___,0,0x000),
    DN(D_5,1,0x000),
    DN(___,0,0x000),
    DN(___,0,0x000),
    DN(___,0,0x000),
    DN(C_5,1,0x000),
    DN(___,0,0x000),
    DN(___,0,0x000),
    DN(___,0,0x000),
    DN(Gs5,1,0x000),
    DN(___,0,0x000),
    DN(G_5,1,0x000),
    DN(___,0,0x000),
    DN(___,0,0x000),
    DN(___,0,0x000),
    DN(___,0,0x000),
    DN(___,0,0x000),
    DN(___,0,0x000),
    DN(___,0,0x000),
    DN(___,0,0x000),
    DN(___,0,0x000),
    DN(___,0,0x000),
    DN(___,0,0x000),
    DN(___,0,0x000),
    DN(___,0,0x000),
    DN(___,0,0x000),
    DN(___,0,0x000),
    DN(___,0,0x000),
    DN(___,0,0x000),
    DN(F_5,1,0x000),
    DN(___,0,0x000),
    DN(___,0,0x000),
    DN(___,0,0x000),
    DN(___,0,0x000),
    DN(___,0,0x000),
    DN(___,0,0x000),
    DN(___,0,0x000),
};
static const unsigned char P2[] = {
    DN(G_5,15,0x255),
    DN(___,0,0x255),
    DN(C_4,5,0x000),
    DN(___,0,0xC01),
    DN(C_4,8,0x000),
    DN(___,0,0xC01),
    DN(C_4,13,0x000),
    DN(___,0,0xC00),
    DN(G_5,15,0x255),
    DN(___,0,0x255),
    DN(C_4,4,0xC01),
    DN(___,0,0xC00),
    DN(C_4,8,0xC01),
    DN(___,0,0xC00),
    DN(C_4,13,0xC01),
    DN(___,0,0xC00),
    DN(G_5,15,0x255),
    DN(___,0,0x255),
    DN(C_4,4,0x000),
    DN(___,0,0xC01),
    DN(C_4,8,0x000),
    DN(___,0,0xC01),
    DN(C_4,13,0x000),
    DN(___,0,0xC00),
    DN(G_5,15,0x255),
    DN(___,0,0x255),
    DN(C_4,4,0xC01),
    DN(___,0,0xC00),
    DN(C_4,8,0xC01),
    DN(___,0,0xC00),
    DN(C_4,13,0xC01),
    DN(___,0,0xC00),
    DN(G_5,15,0x255),
    DN(___,0,0x255),
    DN(Gs3,4,0x000),
    DN(___,0,0xC01),
    DN(Gs3,8,0x000),
    DN(___,0,0xC01),
    DN(Gs3,13,0x000),
    DN(___,0,0xC00),
    DN(G_5,15,0x255),
    DN(___,0,0x255),
    DN(Gs3,4,0x000),
    DN(___,0,0xC01),
    DN(Gs3,8,0x000),
    DN(___,0,0xC01),
    DN(Gs3,13,0x000),
    DN(___,0,0xC00),
    DN(G_5,15,0x255),
    DN(___,0,0x255),
    DN(Gs3,4,0x000),
    DN(___,0,0xC01),
    DN(Gs3,8,0x000),
    DN(___,0,0xC01),
    DN(Gs3,13,0x000),
    DN(___,0,0xC00),
    DN(G_5,15,0x255),
    DN(___,0,0x255),
    DN(Gs3,4,0xC01),
    DN(___,0,0xC00),
    DN(Gs3,8,0xC01),
    DN(___,0,0xC00),
    DN(Gs3,13,0xC01),
    DN(___,0,0x000),
};
static const unsigned char P3[] = {
    DN(C_8,2,0x000),
    DN(___,0,0x000),
    DN(C_8,2,0x000),
    DN(___,0,0x000),
    DN(C_8,2,0x000),
    DN(___,0,0x000),
    DN(C_8,2,0x000),
    DN(___,0,0x000),
    DN(F_7,1,0x000),
    DN(___,0,0x000),
    DN(C_8,2,0x000),
    DN(___,0,0x000),
    DN(C_8,2,0x000),
    DN(___,0,0x000),
    DN(C_8,2,0x000),
    DN(___,0,0x000),
    DN(C_8,2,0x000),
    DN(___,0,0x000),
    DN(C_8,2,0x000),
    DN(___,0,0x000),
    DN(C_8,2,0x000),
    DN(___,0,0x000),
    DN(C_8,2,0x000),
    DN(___,0,0x000),
    DN(F_7,1,0x000),
    DN(___,0,0x000),
    DN(C_8,2,0x000),
    DN(___,0,0x000),
    DN(C_8,2,0x000),
    DN(___,0,0x000),
    DN(C_8,2,0x000),
    DN(___,0,0x000),
    DN(C_8,2,0x000),
    DN(___,0,0x000),
    DN(C_8,2,0x000),
    DN(___,0,0x000),
    DN(C_8,2,0x000),
    DN(___,0,0x000),
    DN(C_8,2,0x000),
    DN(___,0,0x000),
    DN(F_7,1,0x000),
    DN(___,0,0x000),
    DN(C_8,2,0x000),
    DN(___,0,0x000),
    DN(C_8,2,0x000),
    DN(___,0,0x000),
    DN(C_8,2,0x000),
    DN(___,0,0x000),
    DN(C_8,2,0x000),
    DN(___,0,0x000),
    DN(C_8,2,0x000),
    DN(___,0,0x000),
    DN(C_8,2,0x000),
    DN(___,0,0x000),
    DN(C_8,2,0x000),
    DN(___,0,0x000),
    DN(F_7,1,0x000),
    DN(___,0,0x000),
    DN(C_8,2,0x000),
    DN(___,0,0x000),
    DN(C_8,2,0x000),
    DN(___,0,0x000),
    DN(C_8,2,0x000),
    DN(___,0,0x000),
};
static const unsigned char P12[] = {
    DN(As4,2,0x000),
    DN(___,0,0x000),
    DN(___,0,0x000),
    DN(___,0,0x000),
    DN(___,0,0x000),
    DN(___,0,0x000),
    DN(___,0,0x000),
    DN(___,0,0x000),
    DN(___,0,0x000),
    DN(___,0,0x000),
    DN(F_4,2,0x000),
    DN(___,0,0x000),
    DN(As4,2,0x000),
    DN(___,0,0x000),
    DN(C_5,2,0x000),
    DN(___,0,0x000),
    DN(D_5,2,0x000),
    DN(___,0,0x000),
    DN(___,0,0x000),
    DN(___,0,0x000),
    DN(C_5,2,0x000),
    DN(___,0,0x000),
    DN(___,0,0x000),
    DN(___,0,0x000),
    DN(As4,2,0x000),
    DN(___,0,0x000),
    DN(___,0,0x000),
    DN(___,0,0x000),
    DN(F_4,2,0x000),
    DN(___,0,0x000),
    DN(___,0,0x000),
    DN(___,0,0x000),
    DN(Gs4,2,0x000),
    DN(___,0,0x000),
    DN(___,0,0x000),
    DN(___,0,0x000),
    DN(F_5,2,0x000),
    DN(___,0,0x000),
    DN(Ds5,2,0x000),
    DN(___,0,0x000),
    DN(___,0,0x000),
    DN(___,0,0x000),
    DN(___,0,0x000),
    DN(___,0,0x000),
    DN(___,0,0x000),
    DN(___,0,0x000),
    DN(___,0,0x000),
    DN(___,0,0x000),
    DN(___,0,0x000),
    DN(___,0,0x000),
    DN(___,0,0x000),
    DN(___,0,0x000),
    DN(___,0,0x000),
    DN(___,0,0x000),
    DN(___,0,0x000),
    DN(___,0,0x000),
    DN(D_5,2,0x000),
    DN(___,0,0x000),
    DN(___,0,0x000),
    DN(___,0,0x000),
    DN(___,0,0x000),
    DN(___,0,0x000),
    DN(___,0,0x000),
    DN(___,0,0x000),
};
static const unsigned char P13[] = {
    DN(D_5,1,0xF04),
    DN(___,0,0x000),
    DN(___,0,0x000),
    DN(___,0,0x000),
    DN(___,0,0x000),
    DN(___,0,0x000),
    DN(___,0,0x000),
    DN(___,0,0x000),
    DN(___,0,0x000),
    DN(___,0,0x000),
    DN(As4,1,0x000),
    DN(___,0,0x000),
    DN(D_5,1,0x000),
    DN(___,0,0x000),
    DN(Ds5,1,0x000),
    DN(___,0,0x000),
    DN(F_5,1,0x000),
    DN(___,0,0x000),
    DN(___,0,0x000),
    DN(___,0,0x000),
    DN(Ds5,1,0x000),
    DN(___,0,0x000),
    DN(___,0,0x000),
    DN(___,0,0x000),
    DN(D_5,1,0x000),
    DN(___,0,0x000),
    DN(___,0,0x000),
    DN(___,0,0x000),
    DN(___,0,0x000),
    DN(___,0,0x000),
    DN(___,0,0x000),
    DN(___,0,0x000),
    DN(C_5,1,0x000),
    DN(___,0,0x000),
    DN(___,0,0x000),
    DN(___,0,0x000),
    DN(Gs5,1,0x000),
    DN(___,0,0x000),
    DN(G_5,1,0x000),
    DN(___,0,0x000),
    DN(___,0,0x000),
    DN(___,0,0x000),
    DN(___,0,0x000),
    DN(___,0,0x000),
    DN(___,0,0x000),
    DN(___,0,0x000),
    DN(___,0,0x000),
    DN(___,0,0x000),
    DN(___,0,0x000),
    DN(___,0,0x000),
    DN(___,0,0x000),
    DN(___,0,0x000),
    DN(___,0,0x000),
    DN(___,0,0x000),
    DN(___,0,0x000),
    DN(___,0,0x000),
    DN(F_5,1,0x000),
    DN(___,0,0x000),
    DN(___,0,0x000),
    DN(___,0,0x000),
    DN(___,0,0x000),
    DN(___,0,0x000),
    DN(___,0,0x000),
    DN(___,0,0x000),
};
static const unsigned char P14[] = {
    DN(G_5,15,0x255),
    DN(___,0,0x255),
    DN(As3,4,0x000),
    DN(___,0,0xC01),
    DN(As3,8,0x000),
    DN(___,0,0xC01),
    DN(As3,13,0x000),
    DN(___,0,0xC00),
    DN(G_5,15,0x255),
    DN(___,0,0x255),
    DN(As3,4,0xC01),
    DN(___,0,0xC00),
    DN(As3,8,0xC01),
    DN(___,0,0xC00),
    DN(As3,13,0xC01),
    DN(___,0,0xC00),
    DN(G_5,15,0x255),
    DN(___,0,0x255),
    DN(As3,4,0x000),
    DN(___,0,0xC01),
    DN(As3,8,0x000),
    DN(___,0,0xC01),
    DN(As3,13,0x000),
    DN(___,0,0xC00),
    DN(G_5,15,0x255),
    DN(___,0,0x255),
    DN(C_4,4,0xC01),
    DN(___,0,0xC00),
    DN(C_4,8,0xC01),
    DN(___,0,0xC00),
    DN(C_4,13,0xC01),
    DN(___,0,0xC00),
    DN(G_5,15,0x255),
    DN(___,0,0x255),
    DN(Gs3,4,0x000),
    DN(___,0,0xC01),
    DN(Gs3,8,0x000),
    DN(___,0,0xC01),
    DN(Gs3,13,0x000),
    DN(___,0,0xC00),
    DN(G_5,15,0x255),
    DN(___,0,0x255),
    DN(Gs3,4,0x000),
    DN(___,0,0xC01),
    DN(Gs3,8,0x000),
    DN(___,0,0xC01),
    DN(Gs3,13,0x000),
    DN(___,0,0xC00),
    DN(G_5,15,0x255),
    DN(___,0,0x255),
    DN(Gs3,4,0x000),
    DN(___,0,0xC01),
    DN(Gs3,8,0x000),
    DN(___,0,0xC01),
    DN(Gs3,13,0x000),
    DN(___,0,0xC00),
    DN(G_5,15,0x255),
    DN(___,0,0x255),
    DN(Gs3,4,0x000),
    DN(___,0,0xC01),
    DN(Gs3,8,0x000),
    DN(___,0,0xC01),
    DN(Gs3,13,0x000),
    DN(___,0,0xC00),
};

static const unsigned char* const order1[] = {P0,P12};
static const unsigned char* const order2[] = {P1,P13};
static const unsigned char* const order3[] = {P2,P14};
static const unsigned char* const order4[] = {P3,P3};

static const unsigned char duty_instruments[] = {
8,192,135,128,
8,64,199,128,
8,128,240,128,
8,192,240,128,
8,0,241,128,
8,64,241,128,
8,128,241,128,
8,192,241,128,
8,128,240,128,
8,128,240,128,
8,128,240,128,
8,128,240,128,
8,128,240,128,
8,128,240,128,
8,128,240,128,
};
static const unsigned char wave_instruments[] = {
0,32,0,128,
0,32,1,128,
0,32,2,128,
0,32,3,128,
0,32,4,128,
0,32,5,128,
0,32,6,128,
0,32,10,128,
0,32,8,128,
0,32,9,128,
0,32,10,128,
0,32,11,128,
0,32,13,128,
0,32,13,128,
0,32,14,128,
};
static const unsigned char noise_instruments[] = {
183,106,0,0,0,0,0,0,
87,122,2,1,1,1,1,5,
240,0,0,0,0,0,0,0,
240,0,0,0,0,0,0,0,
240,0,0,0,0,0,0,0,
240,0,0,0,0,0,0,0,
240,0,0,0,0,0,0,0,
240,0,0,0,0,0,0,0,
240,0,0,0,0,0,0,0,
240,0,0,0,0,0,0,0,
240,0,0,0,0,0,0,0,
240,0,0,0,0,0,0,0,
240,0,0,0,0,0,0,0,
240,0,0,0,0,0,0,0,
240,0,0,0,0,0,0,0,
};

static const unsigned char waves[] = {
    2,70,120,153,153,152,132,50,17,0,0,0,0,0,0,0,
    2,70,120,153,153,152,135,119,96,0,0,87,0,0,0,0,
    2,70,120,153,153,152,135,119,96,0,0,17,56,128,0,0,
    2,70,120,153,153,152,135,119,96,0,0,17,16,121,183,0,
    2,70,120,149,153,152,135,119,96,0,0,17,16,121,53,220,
    2,70,56,149,153,152,135,119,96,0,0,17,16,51,70,141,
    2,66,56,37,153,146,135,119,96,0,0,65,16,51,70,141,
    2,66,56,37,149,146,135,119,96,0,0,129,16,51,70,141,
    2,66,50,37,149,146,135,119,96,0,0,193,26,51,70,141,
    1,17,17,37,149,146,135,119,102,96,0,193,26,211,70,141,
    1,17,17,35,51,146,135,114,102,96,0,241,26,243,79,143,
    1,17,17,17,17,18,135,114,99,69,103,129,26,247,79,143,
    1,17,17,17,17,18,34,114,99,69,103,134,26,247,239,143,
    1,17,17,17,17,18,34,114,99,69,187,134,26,247,239,143,
    1,35,69,103,137,171,205,204,204,221,203,170,152,201,134,84,
    1,17,17,17,17,18,34,114,99,167,187,236,26,247,239,143,
};

const hUGESong_t music_titlescreen = {7, &order_cnt, order1, order2, order3,order4, duty_instruments, wave_instruments, noise_instruments, NULL, waves};
