#include "hUGEDriver.h"
#include <stddef.h>

static const unsigned char order_cnt = 40;

static const unsigned char P26[] = {
    DN(C_5,4,0x000),
    DN(___,0,0x000),
    DN(___,0,0x000),
    DN(___,0,0x000),
    DN(C_5,4,0x000),
    DN(___,0,0x000),
    DN(___,0,0x000),
    DN(___,0,0x000),
    DN(C_4,4,0x000),
    DN(___,0,0xC07),
    DN(C_4,4,0x000),
    DN(___,0,0xC07),
    DN(C_4,4,0x000),
    DN(___,0,0xC07),
    DN(Ds5,4,0x000),
    DN(___,0,0x000),
    DN(___,0,0x000),
    DN(___,0,0x000),
    DN(C_4,4,0x000),
    DN(___,0,0xC07),
    DN(C_4,4,0x000),
    DN(___,0,0xC07),
    DN(F_5,4,0x000),
    DN(___,0,0xC07),
    DN(___,0,0x000),
    DN(___,0,0x000),
    DN(C_4,4,0x000),
    DN(___,0,0xC07),
    DN(D_5,4,0x000),
    DN(___,0,0x000),
    DN(___,0,0x000),
    DN(___,0,0x000),
    DN(C_5,4,0x000),
    DN(___,0,0x000),
    DN(___,0,0x000),
    DN(___,0,0x000),
    DN(C_5,4,0x000),
    DN(___,0,0x000),
    DN(___,0,0x000),
    DN(___,0,0x000),
    DN(C_4,4,0x000),
    DN(___,0,0xC07),
    DN(C_4,4,0x000),
    DN(___,0,0xC07),
    DN(C_4,4,0x000),
    DN(___,0,0xC07),
    DN(Ds5,4,0x000),
    DN(___,0,0x000),
    DN(___,0,0x000),
    DN(___,0,0x000),
    DN(C_4,4,0x000),
    DN(___,0,0xC07),
    DN(C_4,4,0x000),
    DN(___,0,0xC07),
    DN(F_5,4,0x000),
    DN(___,0,0xC07),
    DN(___,0,0x000),
    DN(___,0,0x000),
    DN(C_4,4,0x000),
    DN(___,0,0xC07),
    DN(D_5,4,0x000),
    DN(___,0,0x000),
    DN(___,0,0x000),
    DN(___,0,0x000),
};
static const unsigned char P27[] = {
    DN(A_7,10,0x000),
    DN(___,0,0x000),
    DN(___,0,0x000),
    DN(___,0,0x000),
    DN(Ds7,3,0x000),
    DN(___,0,0x000),
    DN(C_8,1,0x000),
    DN(___,0,0x000),
    DN(C_8,1,0x000),
    DN(___,0,0x000),
    DN(C_8,2,0x000),
    DN(___,0,0x000),
    DN(Ds7,3,0x000),
    DN(___,0,0x000),
    DN(C_8,1,0x000),
    DN(___,0,0x000),
    DN(C_8,1,0x000),
    DN(___,0,0x000),
    DN(C_8,2,0x000),
    DN(___,0,0x000),
    DN(Ds7,3,0x000),
    DN(___,0,0x000),
    DN(C_8,1,0x000),
    DN(___,0,0x000),
    DN(C_8,1,0x000),
    DN(___,0,0x000),
    DN(C_8,2,0x000),
    DN(___,0,0x000),
    DN(Ds7,3,0x000),
    DN(___,0,0x000),
    DN(C_8,1,0x000),
    DN(___,0,0x000),
    DN(C_8,1,0x000),
    DN(___,0,0x000),
    DN(C_8,2,0x000),
    DN(___,0,0x000),
    DN(Ds7,3,0x000),
    DN(___,0,0x000),
    DN(C_8,1,0x000),
    DN(___,0,0x000),
    DN(C_8,1,0x000),
    DN(___,0,0x000),
    DN(C_8,2,0x000),
    DN(___,0,0x000),
    DN(Ds7,3,0x000),
    DN(___,0,0x000),
    DN(C_8,1,0x000),
    DN(___,0,0x000),
    DN(C_8,1,0x000),
    DN(___,0,0x000),
    DN(C_8,2,0x000),
    DN(___,0,0x000),
    DN(Ds7,3,0x000),
    DN(___,0,0x000),
    DN(C_8,1,0x000),
    DN(___,0,0x000),
    DN(C_8,1,0x000),
    DN(___,0,0x000),
    DN(C_8,2,0x000),
    DN(___,0,0x000),
    DN(Ds7,3,0x000),
    DN(___,0,0x000),
    DN(C_8,1,0x000),
    DN(___,0,0x000),
};
static const unsigned char P70[] = {
    DN(C_4,1,0x000),
    DN(___,0,0x000),
    DN(___,0,0x000),
    DN(___,0,0x000),
    DN(C_4,1,0x000),
    DN(___,0,0x000),
    DN(___,0,0x000),
    DN(___,0,0x000),
    DN(C_3,1,0x000),
    DN(___,0,0x000),
    DN(C_3,1,0x000),
    DN(___,0,0x000),
    DN(C_3,1,0x000),
    DN(___,0,0x000),
    DN(Ds4,1,0x000),
    DN(___,0,0x000),
    DN(___,0,0x000),
    DN(___,0,0x000),
    DN(C_3,1,0x000),
    DN(___,0,0x000),
    DN(C_3,1,0x000),
    DN(___,0,0x000),
    DN(F_4,1,0x000),
    DN(___,0,0x000),
    DN(___,0,0x000),
    DN(___,0,0x000),
    DN(C_3,1,0x000),
    DN(___,0,0x000),
    DN(D_4,1,0x000),
    DN(___,0,0x000),
    DN(___,0,0x000),
    DN(___,0,0x000),
    DN(C_4,1,0x000),
    DN(___,0,0x000),
    DN(___,0,0x000),
    DN(___,0,0x000),
    DN(C_4,1,0x000),
    DN(___,0,0x000),
    DN(___,0,0x000),
    DN(___,0,0x000),
    DN(C_3,1,0x000),
    DN(___,0,0x000),
    DN(C_3,1,0x000),
    DN(___,0,0x000),
    DN(C_3,1,0x000),
    DN(___,0,0x000),
    DN(Ds4,1,0x000),
    DN(___,0,0x000),
    DN(___,0,0x000),
    DN(___,0,0x000),
    DN(C_3,1,0x000),
    DN(___,0,0x000),
    DN(C_3,1,0x000),
    DN(___,0,0x000),
    DN(F_4,1,0x000),
    DN(___,0,0x000),
    DN(___,0,0x000),
    DN(___,0,0x000),
    DN(C_3,1,0x000),
    DN(___,0,0x000),
    DN(D_4,1,0x000),
    DN(___,0,0x000),
    DN(___,0,0x000),
    DN(___,0,0x8FF),
};
static const unsigned char P71[] = {
    DN(G_4,1,0x8FF),
    DN(___,0,0x000),
    DN(___,0,0x000),
    DN(___,0,0x000),
    DN(G_4,1,0x000),
    DN(___,0,0x000),
    DN(___,0,0x000),
    DN(___,0,0x000),
    DN(G_3,1,0x000),
    DN(___,0,0x000),
    DN(G_3,1,0x000),
    DN(___,0,0x000),
    DN(G_3,1,0x000),
    DN(___,0,0x000),
    DN(As4,1,0x000),
    DN(___,0,0x000),
    DN(___,0,0x000),
    DN(___,0,0x000),
    DN(G_3,1,0x000),
    DN(___,0,0x000),
    DN(G_3,1,0x000),
    DN(___,0,0x000),
    DN(C_5,1,0x000),
    DN(___,0,0x000),
    DN(___,0,0x000),
    DN(___,0,0x000),
    DN(G_3,1,0x000),
    DN(___,0,0x000),
    DN(A_4,1,0x000),
    DN(___,0,0x000),
    DN(___,0,0x000),
    DN(___,0,0x000),
    DN(G_4,1,0x000),
    DN(___,0,0x000),
    DN(___,0,0x000),
    DN(___,0,0x000),
    DN(G_4,1,0x000),
    DN(___,0,0x000),
    DN(___,0,0x000),
    DN(___,0,0x000),
    DN(G_3,1,0x000),
    DN(___,0,0x000),
    DN(G_3,1,0x000),
    DN(___,0,0x000),
    DN(G_3,1,0x000),
    DN(___,0,0x000),
    DN(As4,1,0x000),
    DN(___,0,0x000),
    DN(___,0,0x000),
    DN(___,0,0x000),
    DN(G_3,1,0x000),
    DN(___,0,0x000),
    DN(G_3,1,0x000),
    DN(___,0,0x000),
    DN(C_5,1,0x000),
    DN(___,0,0x000),
    DN(___,0,0x000),
    DN(___,0,0x000),
    DN(G_3,1,0x000),
    DN(___,0,0x000),
    DN(A_4,1,0x000),
    DN(___,0,0x000),
    DN(___,0,0x000),
    DN(___,0,0x000),
};
static const unsigned char P109[] = {
    DN(___,0,0x000),
    DN(___,0,0x000),
    DN(___,0,0x000),
    DN(___,0,0x000),
    DN(___,0,0x000),
    DN(___,0,0x000),
    DN(___,0,0x000),
    DN(___,0,0x000),
    DN(___,0,0x000),
    DN(___,0,0x000),
    DN(___,0,0x000),
    DN(___,0,0x000),
    DN(___,0,0x000),
    DN(___,0,0x000),
    DN(___,0,0x000),
    DN(___,0,0x000),
    DN(___,0,0x000),
    DN(___,0,0x000),
    DN(___,0,0x000),
    DN(___,0,0x000),
    DN(___,0,0x000),
    DN(___,0,0x000),
    DN(___,0,0x000),
    DN(___,0,0x000),
    DN(___,0,0x000),
    DN(___,0,0x000),
    DN(___,0,0x000),
    DN(___,0,0x000),
    DN(___,0,0x000),
    DN(___,0,0x000),
    DN(___,0,0x000),
    DN(___,0,0x000),
    DN(___,0,0x000),
    DN(___,0,0x000),
    DN(___,0,0x000),
    DN(___,0,0x000),
    DN(___,0,0x000),
    DN(___,0,0x000),
    DN(___,0,0x000),
    DN(___,0,0x000),
    DN(___,0,0x000),
    DN(___,0,0x000),
    DN(___,0,0x000),
    DN(___,0,0x000),
    DN(___,0,0x000),
    DN(___,0,0x000),
    DN(___,0,0x000),
    DN(___,0,0x000),
    DN(___,0,0x000),
    DN(___,0,0x000),
    DN(___,0,0x000),
    DN(___,0,0x000),
    DN(___,0,0x000),
    DN(___,0,0x000),
    DN(___,0,0x000),
    DN(___,0,0x000),
    DN(___,0,0x000),
    DN(___,0,0x000),
    DN(___,0,0x000),
    DN(___,0,0x000),
    DN(___,0,0x000),
    DN(___,0,0x000),
    DN(___,0,0x000),
    DN(___,0,0x000),
};
static const unsigned char P119[] = {
    DN(C_5,11,0x8FF),
    DN(C_5,12,0x8EF),
    DN(D_5,11,0x8FF),
    DN(___,0,0x000),
    DN(D_5,12,0x8EF),
    DN(___,0,0x8FE),
    DN(Ds5,11,0x8FF),
    DN(___,0,0x000),
    DN(Ds5,12,0x8EF),
    DN(___,0,0x8FE),
    DN(G_5,11,0x8FF),
    DN(___,0,0x000),
    DN(G_5,12,0x8EF),
    DN(___,0,0x8FE),
    DN(F_5,11,0x8FF),
    DN(___,0,0x000),
    DN(F_5,12,0x8EF),
    DN(___,0,0x000),
    DN(___,0,0x8FE),
    DN(___,0,0x000),
    DN(___,0,0x000),
    DN(___,0,0x000),
    DN(D_5,11,0x8FF),
    DN(___,0,0x000),
    DN(Ds5,11,0x000),
    DN(___,0,0x000),
    DN(D_5,11,0x000),
    DN(___,0,0x000),
    DN(As4,11,0x000),
    DN(___,0,0x000),
    DN(G_4,11,0x000),
    DN(___,0,0x000),
    DN(As4,11,0x000),
    DN(___,0,0x000),
    DN(C_5,11,0x8FF),
    DN(___,0,0x000),
    DN(C_5,12,0x8EF),
    DN(___,0,0x000),
    DN(C_5,11,0x8FF),
    DN(___,0,0x000),
    DN(C_5,13,0x8FE),
    DN(___,0,0x000),
    DN(___,0,0x000),
    DN(___,0,0x000),
    DN(___,0,0x000),
    DN(___,0,0x000),
    DN(___,0,0x000),
    DN(___,0,0x000),
    DN(___,0,0x000),
    DN(___,0,0x000),
    DN(___,0,0x000),
    DN(___,0,0x000),
    DN(___,0,0x000),
    DN(___,0,0x000),
    DN(D_5,11,0x8FF),
    DN(___,0,0x000),
    DN(Ds5,11,0x000),
    DN(___,0,0x000),
    DN(D_5,11,0x000),
    DN(___,0,0x000),
    DN(As4,11,0x000),
    DN(___,0,0x000),
    DN(G_4,11,0x000),
    DN(___,0,0x000),
};
static const unsigned char P120[] = {
    DN(G_4,1,0x000),
    DN(___,0,0x000),
    DN(___,0,0x000),
    DN(___,0,0x000),
    DN(G_4,1,0x000),
    DN(___,0,0x000),
    DN(___,0,0x000),
    DN(___,0,0x000),
    DN(G_3,1,0x000),
    DN(___,0,0x000),
    DN(G_3,1,0x000),
    DN(___,0,0x000),
    DN(G_3,1,0x000),
    DN(___,0,0x000),
    DN(As4,1,0x000),
    DN(___,0,0x000),
    DN(___,0,0x000),
    DN(___,0,0x000),
    DN(G_3,1,0x000),
    DN(___,0,0x000),
    DN(G_3,1,0x000),
    DN(___,0,0x000),
    DN(C_5,1,0x000),
    DN(___,0,0x000),
    DN(___,0,0x000),
    DN(___,0,0x000),
    DN(G_3,1,0x000),
    DN(___,0,0x000),
    DN(A_4,1,0x000),
    DN(___,0,0x000),
    DN(___,0,0x000),
    DN(___,0,0x000),
    DN(G_4,1,0x000),
    DN(___,0,0x000),
    DN(___,0,0x000),
    DN(___,0,0x000),
    DN(G_4,1,0x000),
    DN(___,0,0x000),
    DN(___,0,0x000),
    DN(___,0,0x000),
    DN(G_3,1,0x000),
    DN(___,0,0x000),
    DN(G_3,1,0x000),
    DN(___,0,0x000),
    DN(G_3,1,0x000),
    DN(___,0,0x000),
    DN(As4,1,0x000),
    DN(___,0,0x000),
    DN(___,0,0x000),
    DN(___,0,0x000),
    DN(G_3,1,0x000),
    DN(___,0,0x000),
    DN(G_3,1,0x000),
    DN(___,0,0x000),
    DN(C_5,1,0x000),
    DN(___,0,0x000),
    DN(___,0,0x000),
    DN(___,0,0x000),
    DN(G_3,1,0x000),
    DN(___,0,0x000),
    DN(A_4,1,0x000),
    DN(___,0,0x000),
    DN(___,0,0x000),
    DN(___,0,0x000),
};
static const unsigned char P122[] = {
    DN(C_8,1,0x000),
    DN(___,0,0x000),
    DN(C_8,2,0x000),
    DN(___,0,0x000),
    DN(Ds7,3,0x000),
    DN(___,0,0x000),
    DN(C_8,1,0x000),
    DN(___,0,0x000),
    DN(C_8,1,0x000),
    DN(___,0,0x000),
    DN(C_8,2,0x000),
    DN(___,0,0x000),
    DN(Ds7,3,0x000),
    DN(___,0,0x000),
    DN(C_8,1,0x000),
    DN(___,0,0x000),
    DN(C_8,1,0x000),
    DN(___,0,0x000),
    DN(C_8,2,0x000),
    DN(___,0,0x000),
    DN(Ds7,3,0x000),
    DN(___,0,0x000),
    DN(C_8,1,0x000),
    DN(___,0,0x000),
    DN(C_8,1,0x000),
    DN(___,0,0x000),
    DN(C_8,2,0x000),
    DN(___,0,0x000),
    DN(Ds7,3,0x000),
    DN(___,0,0x000),
    DN(C_8,1,0x000),
    DN(___,0,0x000),
    DN(C_8,1,0x000),
    DN(___,0,0x000),
    DN(C_8,2,0x000),
    DN(___,0,0x000),
    DN(Ds7,3,0x000),
    DN(___,0,0x000),
    DN(C_8,1,0x000),
    DN(___,0,0x000),
    DN(C_8,1,0x000),
    DN(___,0,0x000),
    DN(C_8,2,0x000),
    DN(___,0,0x000),
    DN(Ds7,3,0x000),
    DN(___,0,0x000),
    DN(C_8,1,0x000),
    DN(___,0,0x000),
    DN(C_8,1,0x000),
    DN(___,0,0x000),
    DN(C_8,2,0x000),
    DN(___,0,0x000),
    DN(Ds7,3,0x000),
    DN(___,0,0x000),
    DN(C_8,1,0x000),
    DN(___,0,0x000),
    DN(C_8,1,0x000),
    DN(___,0,0x000),
    DN(C_8,2,0x000),
    DN(___,0,0x000),
    DN(Ds7,3,0x000),
    DN(___,0,0x000),
    DN(C_8,1,0x000),
    DN(___,0,0x000),
};
static const unsigned char P124[] = {
    DN(C_5,11,0x8FF),
    DN(C_5,12,0x8EF),
    DN(D_5,11,0x8FF),
    DN(___,0,0x000),
    DN(D_5,12,0x8EF),
    DN(___,0,0x8FE),
    DN(Ds5,11,0x8FF),
    DN(___,0,0x000),
    DN(Ds5,12,0x8EF),
    DN(___,0,0x8FE),
    DN(G_5,11,0x8FF),
    DN(___,0,0x000),
    DN(G_5,12,0x8EF),
    DN(___,0,0x8FE),
    DN(As5,11,0x8FF),
    DN(___,0,0x000),
    DN(As5,12,0x8EF),
    DN(___,0,0x000),
    DN(___,0,0x8FE),
    DN(___,0,0x000),
    DN(___,0,0x000),
    DN(___,0,0x000),
    DN(G_5,11,0x8FF),
    DN(___,0,0x000),
    DN(As5,11,0x000),
    DN(___,0,0x000),
    DN(G_5,11,0x000),
    DN(___,0,0x000),
    DN(As5,11,0x000),
    DN(___,0,0x000),
    DN(G_5,11,0x000),
    DN(___,0,0x000),
    DN(As5,11,0x000),
    DN(___,0,0x000),
    DN(C_6,11,0x8FF),
    DN(___,0,0x000),
    DN(C_6,11,0x8EF),
    DN(___,0,0x000),
    DN(C_6,11,0x8FF),
    DN(___,0,0x000),
    DN(C_6,12,0x8FE),
    DN(___,0,0x000),
    DN(___,0,0x000),
    DN(___,0,0x000),
    DN(___,0,0x000),
    DN(___,0,0x000),
    DN(___,0,0x000),
    DN(___,0,0x000),
    DN(D_5,9,0x8FF),
    DN(___,0,0x000),
    DN(___,0,0x000),
    DN(___,0,0x000),
    DN(___,0,0x000),
    DN(___,0,0x000),
    DN(C_6,11,0x000),
    DN(___,0,0x000),
    DN(As5,11,0x000),
    DN(___,0,0x000),
    DN(G_5,11,0x000),
    DN(___,0,0x000),
    DN(F_5,11,0x000),
    DN(___,0,0x000),
    DN(Ds5,11,0x000),
    DN(___,0,0x000),
};
static const unsigned char P127[] = {
    DN(C_8,1,0x000),
    DN(___,0,0x000),
    DN(C_8,2,0x000),
    DN(___,0,0x000),
    DN(Ds7,3,0x000),
    DN(___,0,0x000),
    DN(C_8,1,0x000),
    DN(___,0,0x000),
    DN(C_8,1,0x000),
    DN(___,0,0x000),
    DN(C_8,2,0x000),
    DN(___,0,0x000),
    DN(Ds7,3,0x000),
    DN(___,0,0x000),
    DN(C_8,1,0x000),
    DN(___,0,0x000),
    DN(C_8,1,0x000),
    DN(___,0,0x000),
    DN(C_8,2,0x000),
    DN(___,0,0x000),
    DN(Ds7,3,0x000),
    DN(___,0,0x000),
    DN(C_8,1,0x000),
    DN(___,0,0x000),
    DN(C_8,1,0x000),
    DN(___,0,0x000),
    DN(C_8,2,0x000),
    DN(___,0,0x000),
    DN(Ds7,3,0x000),
    DN(___,0,0x000),
    DN(C_8,1,0x000),
    DN(___,0,0x000),
    DN(C_8,1,0x000),
    DN(___,0,0x000),
    DN(C_8,2,0x000),
    DN(___,0,0x000),
    DN(Ds7,3,0x000),
    DN(___,0,0x000),
    DN(C_8,1,0x000),
    DN(___,0,0x000),
    DN(C_8,1,0x000),
    DN(___,0,0x000),
    DN(C_8,2,0x000),
    DN(___,0,0x000),
    DN(Ds7,3,0x000),
    DN(___,0,0x000),
    DN(C_8,1,0x000),
    DN(___,0,0x000),
    DN(C_8,1,0x000),
    DN(___,0,0x000),
    DN(C_8,2,0x000),
    DN(___,0,0x000),
    DN(Ds7,3,0x000),
    DN(___,0,0x000),
    DN(C_8,1,0x000),
    DN(___,0,0x000),
    DN(C_8,1,0x000),
    DN(___,0,0x000),
    DN(C_8,2,0x000),
    DN(___,0,0x000),
    DN(Ds7,3,0x000),
    DN(___,0,0x000),
    DN(Ds7,3,0x000),
    DN(Ds7,3,0xC06),
};
static const unsigned char P131[] = {
    DN(Ds3,1,0x000),
    DN(___,0,0x000),
    DN(Ds3,1,0x000),
    DN(___,0,0x000),
    DN(Ds4,1,0x000),
    DN(___,0,0x000),
    DN(As5,15,0x000),
    DN(C_6,15,0x000),
    DN(Gs5,15,0x000),
    DN(___,0,0x000),
    DN(As5,15,0x000),
    DN(___,0,0x000),
    DN(G_5,15,0x000),
    DN(___,0,0x000),
    DN(Gs5,15,0x000),
    DN(___,0,0x000),
    DN(F_3,1,0x000),
    DN(___,0,0x000),
    DN(F_3,1,0x000),
    DN(___,0,0x000),
    DN(F_4,1,0x000),
    DN(___,0,0x000),
    DN(F_5,15,0x000),
    DN(G_5,15,0x000),
    DN(As5,15,0x000),
    DN(___,0,0x000),
    DN(G_5,15,0x000),
    DN(___,0,0x000),
    DN(As5,15,0x000),
    DN(___,0,0x000),
    DN(D_6,15,0x000),
    DN(___,0,0x000),
    DN(G_4,1,0x8FF),
    DN(___,0,0x000),
    DN(___,0,0x000),
    DN(___,0,0x000),
    DN(G_4,1,0x000),
    DN(___,0,0x000),
    DN(___,0,0x000),
    DN(___,0,0x000),
    DN(G_3,1,0x000),
    DN(___,0,0x000),
    DN(G_3,1,0x000),
    DN(___,0,0x000),
    DN(G_3,1,0x000),
    DN(___,0,0x000),
    DN(As4,1,0x000),
    DN(___,0,0x000),
    DN(___,0,0x000),
    DN(___,0,0x000),
    DN(G_3,1,0x000),
    DN(___,0,0x000),
    DN(G_3,1,0x000),
    DN(___,0,0x000),
    DN(C_5,1,0x000),
    DN(___,0,0x000),
    DN(___,0,0x000),
    DN(___,0,0x000),
    DN(G_3,1,0x000),
    DN(___,0,0x000),
    DN(D_6,15,0x000),
    DN(___,0,0x000),
    DN(___,0,0x000),
    DN(___,0,0x000),
};
static const unsigned char P132[] = {
    DN(Gs3,4,0x000),
    DN(___,0,0x000),
    DN(Gs3,4,0x000),
    DN(___,0,0x000),
    DN(Gs4,4,0x000),
    DN(___,0,0x000),
    DN(___,0,0x000),
    DN(___,0,0x000),
    DN(___,0,0x000),
    DN(___,0,0x000),
    DN(___,0,0x000),
    DN(___,0,0x000),
    DN(___,0,0x000),
    DN(___,0,0x000),
    DN(___,0,0x000),
    DN(___,0,0x000),
    DN(As3,4,0x000),
    DN(___,0,0x000),
    DN(As3,4,0x000),
    DN(___,0,0x000),
    DN(As4,4,0x000),
    DN(___,0,0x000),
    DN(___,0,0x000),
    DN(___,0,0x000),
    DN(___,0,0x000),
    DN(___,0,0x000),
    DN(___,0,0x000),
    DN(___,0,0x000),
    DN(___,0,0x000),
    DN(___,0,0x000),
    DN(___,0,0x000),
    DN(___,0,0x000),
    DN(C_5,4,0x000),
    DN(___,0,0x000),
    DN(___,0,0x000),
    DN(___,0,0x000),
    DN(C_5,4,0x000),
    DN(___,0,0x000),
    DN(___,0,0x000),
    DN(___,0,0x000),
    DN(C_4,4,0x000),
    DN(___,0,0xC07),
    DN(C_4,4,0x000),
    DN(___,0,0xC07),
    DN(C_4,4,0x000),
    DN(___,0,0xC07),
    DN(Ds5,4,0x000),
    DN(___,0,0x000),
    DN(___,0,0x000),
    DN(___,0,0x000),
    DN(C_4,4,0x000),
    DN(___,0,0xC07),
    DN(C_4,4,0x000),
    DN(___,0,0xC07),
    DN(F_5,4,0x000),
    DN(___,0,0xC07),
    DN(___,0,0x000),
    DN(___,0,0x000),
    DN(C_4,4,0x000),
    DN(___,0,0xC07),
    DN(D_5,4,0x000),
    DN(___,0,0x000),
    DN(___,0,0x000),
    DN(___,0,0x000),
};
static const unsigned char P133[] = {
    DN(C_6,4,0x000),
    DN(___,0,0x000),
    DN(C_6,4,0x000),
    DN(___,0,0x000),
    DN(Ds7,3,0x000),
    DN(___,0,0x000),
    DN(C_8,1,0x000),
    DN(___,0,0x000),
    DN(C_8,1,0x000),
    DN(___,0,0x000),
    DN(C_8,2,0x000),
    DN(___,0,0x000),
    DN(Ds7,3,0x000),
    DN(___,0,0x000),
    DN(C_8,1,0x000),
    DN(___,0,0x000),
    DN(C_6,4,0x000),
    DN(___,0,0x000),
    DN(C_6,4,0x000),
    DN(___,0,0x000),
    DN(Ds7,3,0x000),
    DN(___,0,0x000),
    DN(C_8,1,0x000),
    DN(___,0,0x000),
    DN(C_8,1,0x000),
    DN(___,0,0x000),
    DN(C_8,2,0x000),
    DN(___,0,0x000),
    DN(Ds7,3,0x000),
    DN(___,0,0x000),
    DN(C_8,1,0x000),
    DN(___,0,0x000),
    DN(C_8,1,0x000),
    DN(___,0,0x000),
    DN(C_8,2,0x000),
    DN(___,0,0x000),
    DN(Ds7,3,0x000),
    DN(___,0,0x000),
    DN(C_8,1,0x000),
    DN(___,0,0x000),
    DN(C_8,1,0x000),
    DN(___,0,0x000),
    DN(C_8,2,0x000),
    DN(___,0,0x000),
    DN(Ds7,3,0x000),
    DN(___,0,0x000),
    DN(C_8,1,0x000),
    DN(___,0,0x000),
    DN(C_8,1,0x000),
    DN(___,0,0x000),
    DN(C_8,2,0x000),
    DN(___,0,0x000),
    DN(Ds7,3,0x000),
    DN(___,0,0x000),
    DN(C_8,1,0x000),
    DN(___,0,0x000),
    DN(C_8,1,0x000),
    DN(___,0,0x000),
    DN(C_8,2,0x000),
    DN(___,0,0x000),
    DN(Ds7,3,0x000),
    DN(___,0,0x000),
    DN(C_8,1,0x000),
    DN(___,0,0x000),
};
static const unsigned char P134[] = {
    DN(___,11,0x000),
    DN(___,0,0x000),
    DN(G_5,11,0x000),
    DN(___,0,0x000),
    DN(Gs5,11,0x000),
    DN(___,0,0x000),
    DN(G_5,11,0x8FF),
    DN(Gs5,11,0x000),
    DN(Ds5,11,0x000),
    DN(___,0,0x000),
    DN(F_5,11,0x000),
    DN(___,0,0x000),
    DN(D_5,11,0x000),
    DN(___,0,0x000),
    DN(Ds5,11,0x000),
    DN(___,0,0x000),
    DN(Ds5,12,0x8EF),
    DN(___,0,0x000),
    DN(D_5,12,0x8FE),
    DN(___,0,0x000),
    DN(___,0,0x000),
    DN(___,0,0x000),
    DN(D_5,11,0x8FF),
    DN(Ds5,11,0x000),
    DN(F_5,11,0x000),
    DN(___,0,0x000),
    DN(D_5,11,0x000),
    DN(___,0,0x000),
    DN(F_5,11,0x000),
    DN(___,0,0x000),
    DN(As5,11,0x000),
    DN(___,0,0x000),
    DN(B_5,11,0x102),
    DN(___,0,0x102),
    DN(___,0,0x000),
    DN(___,0,0x000),
    DN(B_5,11,0x102),
    DN(___,0,0x102),
    DN(___,0,0x000),
    DN(___,0,0x000),
    DN(C_6,11,0x000),
    DN(___,0,0x000),
    DN(As5,11,0x000),
    DN(___,0,0x000),
    DN(G_5,11,0x000),
    DN(___,0,0x000),
    DN(Cs6,11,0x102),
    DN(___,0,0x102),
    DN(___,0,0x000),
    DN(___,0,0x000),
    DN(Ds6,11,0x000),
    DN(___,0,0x000),
    DN(D_6,11,0x000),
    DN(___,0,0x000),
    DN(___,0,0x000),
    DN(___,0,0x000),
    DN(C_6,11,0x000),
    DN(___,0,0x000),
    DN(___,0,0x000),
    DN(___,0,0x000),
    DN(As5,11,0x000),
    DN(___,0,0x000),
    DN(___,0,0x000),
    DN(___,0,0x000),
};
static const unsigned char P135[] = {
    DN(Gs5,11,0x000),
    DN(___,0,0x000),
    DN(G_5,11,0x000),
    DN(___,0,0x000),
    DN(Gs5,11,0x000),
    DN(___,0,0x000),
    DN(C_6,11,0x8FF),
    DN(As5,11,0x000),
    DN(C_6,11,0x000),
    DN(___,0,0x000),
    DN(As5,11,0x000),
    DN(___,0,0x000),
    DN(G_5,11,0x000),
    DN(___,0,0x000),
    DN(As5,11,0x000),
    DN(___,0,0x000),
    DN(Ds5,13,0x8FF),
    DN(___,0,0x000),
    DN(___,0,0x000),
    DN(___,0,0x000),
    DN(___,0,0x000),
    DN(___,0,0x000),
    DN(D_5,11,0x8FF),
    DN(Ds5,11,0x000),
    DN(F_5,11,0x000),
    DN(___,0,0x000),
    DN(D_5,11,0x000),
    DN(___,0,0x000),
    DN(F_5,11,0x000),
    DN(___,0,0x000),
    DN(As5,11,0x000),
    DN(___,0,0x000),
    DN(C_6,11,0x000),
    DN(___,0,0x000),
    DN(___,0,0x000),
    DN(___,0,0x000),
    DN(___,0,0x000),
    DN(___,0,0x000),
    DN(___,0,0x000),
    DN(___,0,0x000),
    DN(C_6,14,0x000),
    DN(___,0,0x000),
    DN(___,0,0x000),
    DN(___,0,0x000),
    DN(___,0,0x000),
    DN(___,0,0x000),
    DN(___,0,0x000),
    DN(___,0,0x000),
    DN(___,0,0x000),
    DN(___,0,0x000),
    DN(___,0,0x000),
    DN(___,0,0x000),
    DN(___,0,0x000),
    DN(___,0,0x000),
    DN(___,0,0x000),
    DN(___,0,0x000),
    DN(___,0,0x000),
    DN(___,0,0x000),
    DN(___,0,0x000),
    DN(___,0,0x000),
    DN(___,0,0x000),
    DN(___,0,0x000),
    DN(___,0,0x000),
    DN(___,0,0x000),
};
static const unsigned char P136[] = {
    DN(Ds3,1,0x8FF),
    DN(___,0,0x000),
    DN(Ds3,1,0x000),
    DN(___,0,0x000),
    DN(Ds4,1,0x000),
    DN(___,0,0x000),
    DN(Ds6,15,0x000),
    DN(D_6,15,0x000),
    DN(Ds6,15,0x000),
    DN(___,0,0x000),
    DN(D_6,15,0x000),
    DN(___,0,0x000),
    DN(As5,15,0x000),
    DN(___,0,0x000),
    DN(D_6,15,0x000),
    DN(___,0,0x000),
    DN(F_3,1,0x000),
    DN(___,0,0x000),
    DN(F_3,1,0x000),
    DN(___,0,0x000),
    DN(F_4,1,0x000),
    DN(___,0,0x000),
    DN(F_5,15,0x000),
    DN(G_5,15,0x000),
    DN(As5,15,0x000),
    DN(___,0,0x000),
    DN(G_5,15,0x000),
    DN(___,0,0x000),
    DN(As5,15,0x000),
    DN(___,0,0x000),
    DN(D_6,15,0x000),
    DN(___,0,0x000),
    DN(G_4,1,0x8FF),
    DN(___,0,0x000),
    DN(___,0,0x000),
    DN(___,0,0x000),
    DN(G_4,1,0x000),
    DN(___,0,0x000),
    DN(___,0,0x000),
    DN(___,0,0x000),
    DN(G_3,1,0x000),
    DN(___,0,0x000),
    DN(G_3,1,0x000),
    DN(___,0,0x000),
    DN(G_3,1,0x000),
    DN(___,0,0x000),
    DN(As4,1,0x000),
    DN(___,0,0x000),
    DN(___,0,0x000),
    DN(___,0,0x000),
    DN(G_3,1,0x000),
    DN(___,0,0x000),
    DN(G_3,1,0x000),
    DN(___,0,0x000),
    DN(C_5,1,0x000),
    DN(___,0,0x000),
    DN(___,0,0x000),
    DN(___,0,0x000),
    DN(G_3,1,0x000),
    DN(___,0,0x000),
    DN(D_4,9,0x000),
    DN(___,0,0x000),
    DN(___,0,0x000),
    DN(___,0,0x000),
};
static const unsigned char P138[] = {
    DN(C_6,4,0x000),
    DN(___,0,0x000),
    DN(C_6,4,0x000),
    DN(___,0,0x000),
    DN(Ds7,3,0x000),
    DN(___,0,0x000),
    DN(C_8,1,0x000),
    DN(___,0,0x000),
    DN(C_8,1,0x000),
    DN(___,0,0x000),
    DN(C_8,2,0x000),
    DN(___,0,0x000),
    DN(Ds7,3,0x000),
    DN(___,0,0x000),
    DN(C_8,1,0x000),
    DN(___,0,0x000),
    DN(C_6,4,0x000),
    DN(___,0,0x000),
    DN(C_6,4,0x000),
    DN(___,0,0x000),
    DN(Ds7,3,0x000),
    DN(___,0,0x000),
    DN(C_8,1,0x000),
    DN(___,0,0x000),
    DN(C_8,1,0x000),
    DN(___,0,0x000),
    DN(C_8,2,0x000),
    DN(___,0,0x000),
    DN(Ds7,3,0x000),
    DN(___,0,0x000),
    DN(Ds7,3,0x000),
    DN(Ds7,3,0x000),
    DN(A_7,10,0x000),
    DN(___,0,0x000),
    DN(___,0,0x000),
    DN(___,0,0x000),
    DN(Ds7,3,0x000),
    DN(___,0,0x000),
    DN(C_8,1,0x000),
    DN(___,0,0x000),
    DN(C_8,1,0x000),
    DN(___,0,0x000),
    DN(C_8,2,0x000),
    DN(___,0,0x000),
    DN(Ds7,3,0x000),
    DN(___,0,0x000),
    DN(C_8,1,0x000),
    DN(___,0,0x000),
    DN(C_8,1,0x000),
    DN(___,0,0x000),
    DN(C_8,2,0x000),
    DN(___,0,0x000),
    DN(Ds7,3,0x000),
    DN(___,0,0x000),
    DN(C_8,1,0x000),
    DN(___,0,0x000),
    DN(C_8,1,0x000),
    DN(___,0,0x000),
    DN(C_8,2,0x000),
    DN(___,0,0x000),
    DN(Ds7,3,0x000),
    DN(___,0,0x000),
    DN(C_8,1,0x000),
    DN(___,0,0x000),
};
static const unsigned char P139[] = {
    DN(C_4,1,0x000),
    DN(___,0,0x000),
    DN(___,0,0x000),
    DN(___,0,0x000),
    DN(C_4,1,0x000),
    DN(___,0,0x000),
    DN(___,0,0x000),
    DN(___,0,0x000),
    DN(C_3,1,0x000),
    DN(___,0,0x000),
    DN(C_3,1,0x000),
    DN(___,0,0x000),
    DN(C_3,1,0x000),
    DN(___,0,0x000),
    DN(Ds4,1,0x000),
    DN(___,0,0x000),
    DN(___,0,0x000),
    DN(___,0,0x000),
    DN(C_3,1,0x000),
    DN(___,0,0x000),
    DN(C_3,1,0x000),
    DN(___,0,0x000),
    DN(F_4,1,0x000),
    DN(___,0,0x000),
    DN(___,0,0x000),
    DN(___,0,0x000),
    DN(C_3,1,0x000),
    DN(___,0,0x000),
    DN(D_4,1,0x000),
    DN(___,0,0x000),
    DN(___,0,0x000),
    DN(___,0,0xB08),
    DN(___,0,0x000),
    DN(___,0,0x000),
    DN(___,0,0x000),
    DN(___,0,0x000),
    DN(___,0,0x000),
    DN(___,0,0x000),
    DN(___,0,0x000),
    DN(___,0,0x000),
    DN(___,0,0x000),
    DN(___,0,0x000),
    DN(___,0,0x000),
    DN(___,0,0x000),
    DN(___,0,0x000),
    DN(___,0,0x000),
    DN(___,0,0x000),
    DN(___,0,0x000),
    DN(___,0,0x000),
    DN(___,0,0x000),
    DN(___,0,0x000),
    DN(___,0,0x000),
    DN(___,0,0x000),
    DN(___,0,0x000),
    DN(___,0,0x000),
    DN(___,0,0x000),
    DN(___,0,0x000),
    DN(___,0,0x000),
    DN(___,0,0x000),
    DN(___,0,0x000),
    DN(___,0,0x000),
    DN(___,0,0x000),
    DN(___,0,0x000),
    DN(___,0,0x000),
};
static const unsigned char P140[] = {
    DN(G_4,1,0x8FF),
    DN(___,0,0x000),
    DN(___,0,0x000),
    DN(___,0,0x000),
    DN(G_4,1,0x000),
    DN(___,0,0x000),
    DN(___,0,0x000),
    DN(___,0,0x000),
    DN(G_3,1,0x000),
    DN(___,0,0x000),
    DN(G_3,1,0x000),
    DN(___,0,0x000),
    DN(G_3,1,0x000),
    DN(___,0,0x000),
    DN(As4,1,0x000),
    DN(___,0,0x000),
    DN(___,0,0x000),
    DN(___,0,0x000),
    DN(G_3,1,0x000),
    DN(___,0,0x000),
    DN(G_3,1,0x000),
    DN(___,0,0x000),
    DN(C_5,1,0x000),
    DN(___,0,0x000),
    DN(___,0,0x000),
    DN(___,0,0x000),
    DN(G_3,1,0x000),
    DN(___,0,0x000),
    DN(A_4,1,0x000),
    DN(___,0,0x000),
    DN(___,0,0x000),
    DN(___,0,0x000),
    DN(___,0,0x000),
    DN(___,0,0x000),
    DN(___,0,0x000),
    DN(___,0,0x000),
    DN(___,0,0x000),
    DN(___,0,0x000),
    DN(___,0,0x000),
    DN(___,0,0x000),
    DN(___,0,0x000),
    DN(___,0,0x000),
    DN(___,0,0x000),
    DN(___,0,0x000),
    DN(___,0,0x000),
    DN(___,0,0x000),
    DN(___,0,0x000),
    DN(___,0,0x000),
    DN(___,0,0x000),
    DN(___,0,0x000),
    DN(___,0,0x000),
    DN(___,0,0x000),
    DN(___,0,0x000),
    DN(___,0,0x000),
    DN(___,0,0x000),
    DN(___,0,0x000),
    DN(___,0,0x000),
    DN(___,0,0x000),
    DN(___,0,0x000),
    DN(___,0,0x000),
    DN(___,0,0x000),
    DN(___,0,0x000),
    DN(___,0,0x000),
    DN(___,0,0x000),
};
static const unsigned char P141[] = {
    DN(C_5,4,0x000),
    DN(___,0,0x000),
    DN(___,0,0x000),
    DN(___,0,0x000),
    DN(C_5,4,0x000),
    DN(___,0,0x000),
    DN(___,0,0x000),
    DN(___,0,0x000),
    DN(C_4,4,0x000),
    DN(___,0,0xC07),
    DN(C_4,4,0x000),
    DN(___,0,0xC07),
    DN(C_4,4,0x000),
    DN(___,0,0xC07),
    DN(Ds5,4,0x000),
    DN(___,0,0x000),
    DN(___,0,0x000),
    DN(___,0,0x000),
    DN(C_4,4,0x000),
    DN(___,0,0xC07),
    DN(C_4,4,0x000),
    DN(___,0,0xC07),
    DN(F_5,4,0x000),
    DN(___,0,0xC07),
    DN(___,0,0x000),
    DN(___,0,0x000),
    DN(C_4,4,0x000),
    DN(___,0,0xC07),
    DN(D_5,4,0x000),
    DN(___,0,0x000),
    DN(___,0,0x000),
    DN(___,0,0x000),
    DN(___,0,0x000),
    DN(___,0,0x000),
    DN(___,0,0x000),
    DN(___,0,0x000),
    DN(___,0,0x000),
    DN(___,0,0x000),
    DN(___,0,0x000),
    DN(___,0,0x000),
    DN(___,0,0x000),
    DN(___,0,0x000),
    DN(___,0,0x000),
    DN(___,0,0x000),
    DN(___,0,0x000),
    DN(___,0,0x000),
    DN(___,0,0x000),
    DN(___,0,0x000),
    DN(___,0,0x000),
    DN(___,0,0x000),
    DN(___,0,0x000),
    DN(___,0,0x000),
    DN(___,0,0x000),
    DN(___,0,0x000),
    DN(___,0,0x000),
    DN(___,0,0x000),
    DN(___,0,0x000),
    DN(___,0,0x000),
    DN(___,0,0x000),
    DN(___,0,0x000),
    DN(___,0,0x000),
    DN(___,0,0x000),
    DN(___,0,0x000),
    DN(___,0,0x000),
};
static const unsigned char P142[] = {
    DN(C_8,1,0x000),
    DN(___,0,0x000),
    DN(C_8,2,0x000),
    DN(___,0,0x000),
    DN(Ds7,3,0x000),
    DN(___,0,0x000),
    DN(C_8,1,0x000),
    DN(___,0,0x000),
    DN(C_8,1,0x000),
    DN(___,0,0x000),
    DN(C_8,2,0x000),
    DN(___,0,0x000),
    DN(Ds7,3,0x000),
    DN(___,0,0x000),
    DN(C_8,1,0x000),
    DN(___,0,0x000),
    DN(C_8,1,0x000),
    DN(___,0,0x000),
    DN(C_8,2,0x000),
    DN(___,0,0x000),
    DN(Ds7,3,0x000),
    DN(___,0,0x000),
    DN(C_8,1,0x000),
    DN(___,0,0x000),
    DN(C_8,1,0x000),
    DN(___,0,0x000),
    DN(C_8,2,0x000),
    DN(___,0,0x000),
    DN(Ds7,3,0x000),
    DN(Ds7,3,0x000),
    DN(Ds7,3,0x000),
    DN(Ds7,3,0x000),
    DN(___,0,0x000),
    DN(___,0,0x000),
    DN(___,0,0x000),
    DN(___,0,0x000),
    DN(___,0,0x000),
    DN(___,0,0x000),
    DN(___,0,0x000),
    DN(___,0,0x000),
    DN(___,0,0x000),
    DN(___,0,0x000),
    DN(___,0,0x000),
    DN(___,0,0x000),
    DN(___,0,0x000),
    DN(___,0,0x000),
    DN(___,0,0x000),
    DN(___,0,0x000),
    DN(___,0,0x000),
    DN(___,0,0x000),
    DN(___,0,0x000),
    DN(___,0,0x000),
    DN(___,0,0x000),
    DN(___,0,0x000),
    DN(___,0,0x000),
    DN(___,0,0x000),
    DN(___,0,0x000),
    DN(___,0,0x000),
    DN(___,0,0x000),
    DN(___,0,0x000),
    DN(___,0,0x000),
    DN(___,0,0x000),
    DN(___,0,0x000),
    DN(___,0,0x000),
};
static const unsigned char P148[] = {
    DN(G_4,1,0x8FF),
    DN(___,0,0x000),
    DN(___,0,0x000),
    DN(___,0,0x000),
    DN(G_4,1,0x8EF),
    DN(___,0,0x000),
    DN(___,0,0x000),
    DN(___,0,0x000),
    DN(G_3,1,0x8FF),
    DN(___,0,0x000),
    DN(G_3,1,0x000),
    DN(___,0,0x000),
    DN(G_3,1,0x8FE),
    DN(___,0,0x000),
    DN(F_4,1,0x000),
    DN(___,0,0x000),
    DN(___,0,0x8FF),
    DN(___,0,0x000),
    DN(F_3,1,0x000),
    DN(___,0,0x000),
    DN(F_3,1,0x8EF),
    DN(___,0,0x000),
    DN(F_4,1,0x000),
    DN(___,0,0x000),
    DN(___,0,0x8FF),
    DN(___,0,0x000),
    DN(G_3,1,0x000),
    DN(___,0,0x000),
    DN(F_4,1,0x8FE),
    DN(___,0,0x000),
    DN(___,0,0x000),
    DN(___,0,0x000),
    DN(Ds4,1,0x8FF),
    DN(___,0,0x000),
    DN(___,0,0x000),
    DN(___,0,0x000),
    DN(Ds4,1,0x000),
    DN(___,0,0x000),
    DN(___,0,0x000),
    DN(___,0,0x000),
    DN(Ds3,1,0x000),
    DN(___,0,0x000),
    DN(Ds3,1,0x000),
    DN(___,0,0x000),
    DN(Ds3,1,0x000),
    DN(___,0,0x000),
    DN(F_4,1,0x000),
    DN(___,0,0x000),
    DN(___,0,0x000),
    DN(___,0,0x000),
    DN(F_3,1,0x000),
    DN(___,0,0x000),
    DN(F_3,1,0x000),
    DN(___,0,0x000),
    DN(As4,1,0x000),
    DN(___,0,0x000),
    DN(___,0,0x000),
    DN(___,0,0x000),
    DN(F_4,1,0x000),
    DN(___,0,0x000),
    DN(As4,1,0x000),
    DN(___,0,0x000),
    DN(___,0,0x000),
    DN(___,0,0x000),
};
static const unsigned char P149[] = {
    DN(C_5,4,0x000),
    DN(___,0,0x000),
    DN(___,0,0x000),
    DN(___,0,0x000),
    DN(C_5,4,0x000),
    DN(___,0,0x000),
    DN(___,0,0x000),
    DN(___,0,0x000),
    DN(C_4,4,0x000),
    DN(___,0,0xC07),
    DN(C_4,4,0x000),
    DN(___,0,0xC07),
    DN(C_4,4,0x000),
    DN(___,0,0xC07),
    DN(As4,4,0x000),
    DN(___,0,0x000),
    DN(___,0,0x000),
    DN(___,0,0x000),
    DN(As3,4,0x000),
    DN(___,0,0xC07),
    DN(As3,4,0x000),
    DN(___,0,0xC07),
    DN(As4,4,0x000),
    DN(___,0,0xC07),
    DN(___,0,0x000),
    DN(___,0,0x000),
    DN(C_4,4,0x000),
    DN(___,0,0xC07),
    DN(As4,4,0x000),
    DN(___,0,0x000),
    DN(___,0,0x000),
    DN(___,0,0x000),
    DN(Gs4,4,0x000),
    DN(___,0,0x000),
    DN(___,0,0x000),
    DN(___,0,0x000),
    DN(Gs4,4,0x000),
    DN(___,0,0x000),
    DN(___,0,0x000),
    DN(___,0,0x000),
    DN(Gs3,4,0x000),
    DN(___,0,0xC07),
    DN(Gs3,4,0x000),
    DN(___,0,0xC07),
    DN(Gs3,4,0x000),
    DN(___,0,0xC07),
    DN(As4,4,0x000),
    DN(___,0,0x000),
    DN(___,0,0x000),
    DN(___,0,0x000),
    DN(As3,4,0x000),
    DN(___,0,0xC07),
    DN(As3,4,0x000),
    DN(___,0,0xC07),
    DN(Ds5,4,0x000),
    DN(___,0,0xC07),
    DN(___,0,0x000),
    DN(___,0,0x000),
    DN(As4,4,0x000),
    DN(___,0,0xC07),
    DN(Ds5,4,0x000),
    DN(___,0,0x000),
    DN(___,0,0x000),
    DN(___,0,0x000),
};
static const unsigned char P155[] = {
    DN(C_4,4,0x110),
    DN(___,0,0x110),
    DN(Ds4,4,0x000),
    DN(___,0,0x000),
    DN(___,0,0x103),
    DN(___,0,0x206),
    DN(___,0,0x106),
    DN(___,0,0x206),
    DN(___,0,0x106),
    DN(___,0,0x206),
    DN(___,0,0x106),
    DN(___,0,0x206),
    DN(___,0,0x000),
    DN(___,0,0x000),
    DN(F_4,4,0x000),
    DN(___,0,0x000),
    DN(___,0,0x000),
    DN(___,0,0x000),
    DN(___,0,0x000),
    DN(___,0,0x000),
    DN(___,0,0x000),
    DN(___,0,0x000),
    DN(F_4,4,0x000),
    DN(___,0,0x000),
    DN(G_4,4,0x000),
    DN(___,0,0x000),
    DN(___,0,0x000),
    DN(___,0,0x000),
    DN(D_4,4,0x000),
    DN(___,0,0x000),
    DN(___,0,0x000),
    DN(___,0,0x000),
    DN(Ds4,4,0x000),
    DN(___,0,0x000),
    DN(D_4,4,0x000),
    DN(___,0,0x000),
    DN(C_4,4,0x000),
    DN(___,0,0x000),
    DN(F_3,4,0x000),
    DN(___,0,0x000),
    DN(G_3,4,0x000),
    DN(___,0,0x000),
    DN(As3,4,0x000),
    DN(___,0,0x000),
    DN(C_4,4,0x000),
    DN(___,0,0x000),
    DN(As3,4,0x000),
    DN(___,0,0x000),
    DN(___,0,0x000),
    DN(___,0,0x000),
    DN(___,0,0x000),
    DN(___,0,0x203),
    DN(___,0,0x203),
    DN(___,0,0x203),
    DN(___,0,0x103),
    DN(___,0,0x103),
    DN(___,0,0x103),
    DN(___,0,0x000),
    DN(___,0,0x000),
    DN(___,0,0x000),
    DN(___,0,0x000),
    DN(___,0,0x000),
    DN(___,0,0x000),
    DN(___,0,0x000),
};
static const unsigned char P156[] = {
    DN(C_4,4,0x000),
    DN(___,0,0x000),
    DN(D_4,4,0x000),
    DN(___,0,0x000),
    DN(Ds4,4,0x000),
    DN(___,0,0x000),
    DN(G_4,4,0x000),
    DN(___,0,0x000),
    DN(F_4,4,0x000),
    DN(___,0,0x000),
    DN(G_4,4,0x000),
    DN(___,0,0x000),
    DN(As4,4,0x000),
    DN(___,0,0x000),
    DN(G_4,4,0x000),
    DN(___,0,0x000),
    DN(As4,4,0x000),
    DN(___,0,0x000),
    DN(___,0,0x000),
    DN(___,0,0x000),
    DN(G_4,4,0x000),
    DN(___,0,0x000),
    DN(As4,4,0x000),
    DN(___,0,0x000),
    DN(___,0,0x000),
    DN(___,0,0x000),
    DN(G_4,4,0x000),
    DN(___,0,0x000),
    DN(___,0,0x000),
    DN(___,0,0x000),
    DN(F_4,4,0x000),
    DN(___,0,0x000),
    DN(F_4,4,0x000),
    DN(___,0,0x000),
    DN(G_4,4,0x000),
    DN(___,0,0x000),
    DN(G_4,4,0x000),
    DN(___,0,0x000),
    DN(F_4,4,0x000),
    DN(___,0,0x000),
    DN(Ds4,4,0x000),
    DN(___,0,0x000),
    DN(D_4,4,0x000),
    DN(___,0,0x000),
    DN(As3,4,0x000),
    DN(___,0,0x000),
    DN(C_4,4,0x000),
    DN(___,0,0x000),
    DN(___,0,0x000),
    DN(___,0,0x000),
    DN(___,0,0x000),
    DN(___,0,0x000),
    DN(___,0,0x000),
    DN(___,0,0x000),
    DN(___,0,0x000),
    DN(___,0,0x000),
    DN(___,0,0x000),
    DN(___,0,0x000),
    DN(___,0,0x000),
    DN(___,0,0x000),
    DN(___,0,0x000),
    DN(___,0,0x000),
    DN(___,0,0x000),
    DN(___,0,0x000),
};
static const unsigned char P157[] = {
    DN(F_4,9,0x000),
    DN(___,0,0x000),
    DN(___,0,0x000),
    DN(___,0,0x000),
    DN(___,0,0x000),
    DN(___,0,0x000),
    DN(Ds5,11,0x8FB),
    DN(D_5,11,0x000),
    DN(Ds5,11,0x000),
    DN(___,0,0x000),
    DN(G_5,11,0x000),
    DN(___,0,0x000),
    DN(Ds5,11,0x000),
    DN(___,0,0x000),
    DN(D_5,11,0x000),
    DN(___,0,0x000),
    DN(___,0,0x000),
    DN(___,0,0x000),
    DN(___,0,0x000),
    DN(___,0,0x000),
    DN(___,0,0x000),
    DN(___,0,0x000),
    DN(___,0,0x000),
    DN(___,0,0x000),
    DN(___,0,0x000),
    DN(___,0,0x000),
    DN(___,0,0x000),
    DN(___,0,0x000),
    DN(___,0,0x000),
    DN(___,0,0x000),
    DN(___,0,0x000),
    DN(___,0,0x000),
    DN(F_4,9,0x000),
    DN(___,0,0x000),
    DN(___,0,0x000),
    DN(___,0,0x000),
    DN(___,0,0x000),
    DN(___,0,0x000),
    DN(Ds5,11,0x8FB),
    DN(D_5,11,0x000),
    DN(Ds5,11,0x000),
    DN(___,0,0x000),
    DN(G_5,11,0x000),
    DN(___,0,0x000),
    DN(Ds5,11,0x000),
    DN(___,0,0x000),
    DN(Cs6,11,0x000),
    DN(___,0,0x101),
    DN(___,0,0x101),
    DN(___,0,0x101),
    DN(___,0,0x000),
    DN(___,0,0x000),
    DN(___,0,0x000),
    DN(___,0,0x000),
    DN(___,0,0x000),
    DN(___,0,0x000),
    DN(As5,11,0x000),
    DN(___,0,0x000),
    DN(___,0,0x102),
    DN(___,0,0x202),
    DN(___,0,0x202),
    DN(___,0,0x102),
    DN(___,0,0x102),
    DN(___,0,0x000),
};
static const unsigned char P158[] = {
    DN(C_4,1,0x8FF),
    DN(___,0,0x000),
    DN(C_4,1,0x8FF),
    DN(___,0,0x000),
    DN(___,0,0x223),
    DN(___,0,0x223),
    DN(G_5,15,0x000),
    DN(F_5,15,0x000),
    DN(G_5,15,0x000),
    DN(___,0,0x000),
    DN(As5,15,0x000),
    DN(___,0,0x000),
    DN(G_5,15,0x000),
    DN(___,0,0x000),
    DN(F_4,1,0x8FF),
    DN(___,0,0x000),
    DN(___,0,0x000),
    DN(___,0,0x000),
    DN(F_3,1,0x000),
    DN(___,0,0x000),
    DN(F_3,1,0x000),
    DN(___,0,0x000),
    DN(F_3,1,0x000),
    DN(___,0,0x000),
    DN(F_4,1,0x000),
    DN(___,0,0x000),
    DN(F_3,1,0x000),
    DN(___,0,0x000),
    DN(F_4,1,0x000),
    DN(___,0,0x000),
    DN(___,0,0x000),
    DN(___,0,0x000),
    DN(C_4,1,0x8FF),
    DN(___,0,0x000),
    DN(C_4,1,0x8FF),
    DN(___,0,0x000),
    DN(___,0,0x223),
    DN(___,0,0x223),
    DN(G_5,15,0x000),
    DN(F_5,15,0x000),
    DN(G_5,15,0x000),
    DN(___,0,0x000),
    DN(As5,15,0x000),
    DN(___,0,0x000),
    DN(G_5,15,0x000),
    DN(___,0,0x000),
    DN(F_4,1,0x8FF),
    DN(___,0,0x000),
    DN(___,0,0x000),
    DN(___,0,0x000),
    DN(F_3,1,0x000),
    DN(___,0,0x000),
    DN(F_3,1,0x000),
    DN(___,0,0x000),
    DN(F_3,1,0x000),
    DN(___,0,0x000),
    DN(F_4,1,0x000),
    DN(___,0,0x000),
    DN(F_3,1,0x000),
    DN(___,0,0x000),
    DN(F_4,1,0x000),
    DN(___,0,0x000),
    DN(___,0,0x000),
    DN(___,0,0x000),
};
static const unsigned char P159[] = {
    DN(F_4,4,0x000),
    DN(___,0,0x000),
    DN(F_4,4,0x000),
    DN(___,0,0xC07),
    DN(___,0,0x223),
    DN(___,0,0x223),
    DN(___,0,0xC00),
    DN(Ds6,1,0x000),
    DN(D_6,1,0x000),
    DN(Ds6,1,0x000),
    DN(___,0,0x000),
    DN(G_6,1,0x000),
    DN(___,0,0x000),
    DN(Ds6,1,0x000),
    DN(As4,4,0x000),
    DN(___,0,0x000),
    DN(___,0,0x000),
    DN(___,0,0x000),
    DN(As3,4,0x000),
    DN(___,0,0x000),
    DN(As3,4,0x000),
    DN(___,0,0x000),
    DN(As3,4,0x000),
    DN(___,0,0x000),
    DN(As4,4,0x000),
    DN(___,0,0x000),
    DN(As3,4,0x000),
    DN(___,0,0x000),
    DN(As4,4,0x000),
    DN(___,0,0xC07),
    DN(___,0,0x223),
    DN(___,0,0x223),
    DN(F_4,4,0x000),
    DN(___,0,0x000),
    DN(F_4,4,0x000),
    DN(___,0,0xC07),
    DN(___,0,0x223),
    DN(___,0,0x223),
    DN(___,0,0xC00),
    DN(Ds6,1,0x000),
    DN(D_6,1,0x000),
    DN(Ds6,1,0x000),
    DN(___,0,0x000),
    DN(G_6,1,0x000),
    DN(___,0,0x000),
    DN(Ds6,1,0x000),
    DN(As4,4,0x000),
    DN(___,0,0x000),
    DN(___,0,0x000),
    DN(___,0,0x000),
    DN(As3,4,0x000),
    DN(___,0,0x000),
    DN(As3,4,0x000),
    DN(___,0,0x000),
    DN(As3,4,0x000),
    DN(___,0,0x000),
    DN(As4,4,0x000),
    DN(___,0,0x000),
    DN(As3,4,0x000),
    DN(___,0,0x000),
    DN(As4,4,0x000),
    DN(___,0,0x000),
    DN(___,0,0x000),
    DN(___,0,0x000),
};
static const unsigned char P160[] = {
    DN(Ds7,3,0x000),
    DN(___,0,0x000),
    DN(Ds7,3,0x000),
    DN(___,0,0x000),
    DN(___,0,0x000),
    DN(___,0,0x000),
    DN(___,0,0x000),
    DN(___,0,0x000),
    DN(___,0,0x000),
    DN(___,0,0x000),
    DN(___,0,0x000),
    DN(___,0,0x000),
    DN(___,0,0x000),
    DN(___,0,0x000),
    DN(Ds7,3,0x000),
    DN(___,0,0x000),
    DN(___,0,0x000),
    DN(___,0,0x000),
    DN(C_8,1,0x000),
    DN(___,0,0x000),
    DN(C_8,1,0x000),
    DN(___,0,0x000),
    DN(C_8,1,0x000),
    DN(___,0,0x000),
    DN(Ds7,3,0x000),
    DN(___,0,0x000),
    DN(C_8,1,0x000),
    DN(___,0,0x000),
    DN(Ds7,3,0x000),
    DN(___,0,0x000),
    DN(___,0,0x000),
    DN(___,0,0x000),
    DN(Ds7,3,0x000),
    DN(___,0,0x000),
    DN(Ds7,3,0x000),
    DN(___,0,0x000),
    DN(___,0,0x000),
    DN(___,0,0x000),
    DN(___,0,0x000),
    DN(___,0,0x000),
    DN(___,0,0x000),
    DN(___,0,0x000),
    DN(___,0,0x000),
    DN(___,0,0x000),
    DN(___,0,0x000),
    DN(___,0,0x000),
    DN(Ds7,3,0x000),
    DN(___,0,0x000),
    DN(___,0,0x000),
    DN(___,0,0x000),
    DN(C_8,1,0x000),
    DN(___,0,0x000),
    DN(C_8,1,0x000),
    DN(___,0,0x000),
    DN(C_8,1,0x000),
    DN(___,0,0x000),
    DN(Ds7,3,0x000),
    DN(___,0,0x000),
    DN(C_8,1,0x000),
    DN(___,0,0x000),
    DN(Ds7,3,0x000),
    DN(___,0,0x000),
    DN(Ds7,3,0x000),
    DN(Ds7,3,0x000),
};
static const unsigned char P162[] = {
    DN(G_4,1,0xC05),
    DN(___,0,0x000),
    DN(___,0,0x000),
    DN(___,0,0x000),
    DN(G_4,1,0xC05),
    DN(___,0,0x000),
    DN(___,0,0x000),
    DN(___,0,0x000),
    DN(G_3,1,0xC05),
    DN(___,0,0x000),
    DN(G_3,1,0xC05),
    DN(___,0,0x000),
    DN(G_3,1,0xC05),
    DN(___,0,0x000),
    DN(As4,1,0xC05),
    DN(___,0,0x000),
    DN(___,0,0x000),
    DN(___,0,0x000),
    DN(G_3,1,0xC05),
    DN(___,0,0x000),
    DN(G_3,1,0xC05),
    DN(___,0,0x000),
    DN(C_5,1,0xC05),
    DN(___,0,0x000),
    DN(___,0,0x000),
    DN(___,0,0x000),
    DN(G_3,1,0xC05),
    DN(___,0,0x000),
    DN(A_4,1,0xC05),
    DN(___,0,0x000),
    DN(___,0,0x000),
    DN(___,0,0x000),
    DN(G_4,1,0xC05),
    DN(___,0,0x000),
    DN(___,0,0x000),
    DN(___,0,0x000),
    DN(G_4,1,0x000),
    DN(___,0,0x000),
    DN(___,0,0x000),
    DN(___,0,0x000),
    DN(G_3,1,0x000),
    DN(___,0,0x000),
    DN(G_3,1,0x000),
    DN(___,0,0x000),
    DN(G_3,1,0x000),
    DN(___,0,0x000),
    DN(As4,1,0x000),
    DN(___,0,0x000),
    DN(___,0,0x000),
    DN(___,0,0x000),
    DN(G_3,1,0x000),
    DN(___,0,0x000),
    DN(G_3,1,0x000),
    DN(___,0,0x000),
    DN(C_5,1,0x000),
    DN(___,0,0x000),
    DN(___,0,0x000),
    DN(___,0,0x000),
    DN(G_3,1,0x000),
    DN(___,0,0x000),
    DN(A_4,1,0x000),
    DN(___,0,0x000),
    DN(___,0,0x000),
    DN(___,0,0x000),
};
static const unsigned char P164[] = {
    DN(A_7,10,0x000),
    DN(___,0,0x000),
    DN(___,0,0x000),
    DN(___,0,0x000),
    DN(Ds7,3,0x000),
    DN(___,0,0x000),
    DN(C_8,1,0x000),
    DN(___,0,0x000),
    DN(C_8,1,0x000),
    DN(___,0,0x000),
    DN(C_8,2,0x000),
    DN(___,0,0x000),
    DN(Ds7,3,0x000),
    DN(___,0,0x000),
    DN(C_8,1,0x000),
    DN(___,0,0x000),
    DN(C_8,1,0x000),
    DN(___,0,0x000),
    DN(C_8,2,0x000),
    DN(___,0,0x000),
    DN(Ds7,3,0x000),
    DN(___,0,0x000),
    DN(C_8,1,0x000),
    DN(___,0,0x000),
    DN(C_8,1,0x000),
    DN(___,0,0x000),
    DN(C_8,2,0x000),
    DN(___,0,0x000),
    DN(Ds7,3,0x000),
    DN(___,0,0x000),
    DN(Ds7,3,0x000),
    DN(___,0,0x000),
    DN(A_7,10,0x000),
    DN(___,0,0x000),
    DN(___,0,0x000),
    DN(___,0,0x000),
    DN(Ds7,3,0x000),
    DN(___,0,0x000),
    DN(C_8,1,0x000),
    DN(___,0,0x000),
    DN(C_8,1,0x000),
    DN(___,0,0x000),
    DN(C_8,2,0x000),
    DN(___,0,0x000),
    DN(Ds7,3,0x000),
    DN(___,0,0x000),
    DN(C_8,1,0x000),
    DN(___,0,0x000),
    DN(C_8,1,0x000),
    DN(___,0,0x000),
    DN(C_8,2,0x000),
    DN(___,0,0x000),
    DN(Ds7,3,0x000),
    DN(___,0,0x000),
    DN(C_8,1,0x000),
    DN(___,0,0x000),
    DN(C_8,1,0x000),
    DN(___,0,0x000),
    DN(C_8,2,0x000),
    DN(___,0,0x000),
    DN(Ds7,3,0x000),
    DN(___,0,0x000),
    DN(C_8,1,0x000),
    DN(___,0,0x000),
};
static const unsigned char P180[] = {
    DN(C_6,11,0x000),
    DN(___,0,0x000),
    DN(___,0,0x207),
    DN(___,0,0x214),
    DN(C_6,11,0xC06),
    DN(___,0,0x000),
    DN(___,0,0x207),
    DN(___,0,0x214),
    DN(D_6,11,0x000),
    DN(___,0,0x000),
    DN(___,0,0x207),
    DN(___,0,0x214),
    DN(D_6,11,0xC06),
    DN(___,0,0x000),
    DN(___,0,0x207),
    DN(___,0,0x214),
    DN(Ds6,11,0x000),
    DN(___,0,0x000),
    DN(___,0,0x207),
    DN(___,0,0x214),
    DN(Ds6,11,0xC06),
    DN(___,0,0x000),
    DN(___,0,0x207),
    DN(___,0,0x214),
    DN(F_6,11,0x000),
    DN(___,0,0x000),
    DN(___,0,0x207),
    DN(___,0,0x214),
    DN(F_6,11,0xC06),
    DN(___,0,0x000),
    DN(___,0,0x207),
    DN(___,0,0x214),
    DN(Fs6,11,0x000),
    DN(___,0,0x102),
    DN(___,0,0x000),
    DN(___,0,0x000),
    DN(As6,11,0x000),
    DN(___,0,0x000),
    DN(Fs6,11,0x000),
    DN(___,0,0x101),
    DN(___,0,0x101),
    DN(___,0,0x000),
    DN(___,0,0x000),
    DN(___,0,0x000),
    DN(___,0,0x101),
    DN(___,0,0x201),
    DN(___,0,0x201),
    DN(___,0,0x101),
    DN(___,0,0x101),
    DN(___,0,0x201),
    DN(___,0,0x201),
    DN(___,0,0x101),
    DN(___,0,0x101),
    DN(___,0,0x201),
    DN(___,0,0x201),
    DN(___,0,0x101),
    DN(___,0,0x101),
    DN(___,0,0x000),
    DN(___,0,0x000),
    DN(___,0,0x000),
    DN(___,0,0x000),
    DN(___,0,0x000),
    DN(___,0,0x000),
    DN(___,0,0x000),
};
static const unsigned char P181[] = {
    DN(Ds6,11,0x000),
    DN(___,0,0x000),
    DN(___,0,0x207),
    DN(___,0,0x214),
    DN(Ds6,11,0xC06),
    DN(___,0,0x000),
    DN(___,0,0x207),
    DN(___,0,0x214),
    DN(D_6,11,0x000),
    DN(___,0,0x000),
    DN(___,0,0x207),
    DN(___,0,0x214),
    DN(D_6,11,0xC06),
    DN(___,0,0x000),
    DN(___,0,0x207),
    DN(___,0,0x214),
    DN(As5,11,0x000),
    DN(___,0,0x000),
    DN(___,0,0x207),
    DN(___,0,0x214),
    DN(As5,11,0xC06),
    DN(___,0,0x000),
    DN(___,0,0x207),
    DN(___,0,0x214),
    DN(G_5,11,0x000),
    DN(___,0,0x000),
    DN(___,0,0x207),
    DN(___,0,0x214),
    DN(G_5,11,0xC06),
    DN(___,0,0x000),
    DN(___,0,0x207),
    DN(___,0,0x214),
    DN(Fs5,11,0x000),
    DN(___,0,0x102),
    DN(___,0,0x102),
    DN(___,0,0x000),
    DN(As5,11,0x000),
    DN(___,0,0x000),
    DN(Fs5,11,0x000),
    DN(___,0,0x102),
    DN(___,0,0x102),
    DN(___,0,0x102),
    DN(___,0,0x000),
    DN(___,0,0x000),
    DN(___,0,0x000),
    DN(___,0,0x000),
    DN(___,0,0x000),
    DN(___,0,0x000),
    DN(___,0,0x000),
    DN(___,0,0x000),
    DN(G_5,11,0x000),
    DN(___,0,0x000),
    DN(F_5,11,0x000),
    DN(___,0,0x000),
    DN(Ds5,11,0x000),
    DN(___,0,0x000),
    DN(F_5,11,0x000),
    DN(___,0,0x000),
    DN(Ds5,11,0x000),
    DN(___,0,0x000),
    DN(D_5,11,0x000),
    DN(___,0,0x000),
    DN(C_4,11,0x000),
    DN(___,0,0x000),
};
static const unsigned char P185[] = {
    DN(C_5,5,0x8FF),
    DN(C_5,6,0x8EF),
    DN(D_5,5,0x8FF),
    DN(___,0,0x000),
    DN(D_5,6,0x8EF),
    DN(___,0,0x8FE),
    DN(Ds5,5,0x8FF),
    DN(___,0,0x000),
    DN(Ds5,6,0x8EF),
    DN(___,0,0x8FE),
    DN(G_5,5,0x8FF),
    DN(___,0,0x000),
    DN(G_5,6,0x8EF),
    DN(___,0,0x8FE),
    DN(F_5,5,0x8FF),
    DN(___,0,0x000),
    DN(F_5,6,0x8EF),
    DN(___,0,0x000),
    DN(___,0,0x8FE),
    DN(___,0,0x000),
    DN(___,0,0x000),
    DN(___,0,0x000),
    DN(D_5,5,0x8FF),
    DN(___,0,0x000),
    DN(Ds5,5,0x000),
    DN(___,0,0x000),
    DN(D_5,5,0x000),
    DN(___,0,0x000),
    DN(As4,5,0x000),
    DN(___,0,0x000),
    DN(G_4,5,0x000),
    DN(___,0,0x000),
    DN(As4,5,0x000),
    DN(___,0,0x000),
    DN(C_5,5,0x8FF),
    DN(___,0,0x000),
    DN(C_5,6,0x8EF),
    DN(___,0,0x000),
    DN(C_5,5,0x8FF),
    DN(___,0,0x000),
    DN(C_5,6,0x8FE),
    DN(___,0,0x000),
    DN(___,0,0x000),
    DN(___,0,0x000),
    DN(___,0,0x000),
    DN(___,0,0x000),
    DN(___,0,0x201),
    DN(___,0,0x201),
    DN(___,0,0x201),
    DN(___,0,0x201),
    DN(___,0,0x201),
    DN(___,0,0x201),
    DN(___,0,0x201),
    DN(___,0,0x000),
    DN(D_5,5,0x8FF),
    DN(___,0,0x000),
    DN(Ds5,5,0x000),
    DN(___,0,0x000),
    DN(D_5,5,0x000),
    DN(___,0,0x000),
    DN(As4,5,0x000),
    DN(___,0,0x000),
    DN(G_4,5,0x000),
    DN(___,0,0x000),
};
static const unsigned char P189[] = {
    DN(C_5,5,0x8FF),
    DN(C_5,6,0x8EF),
    DN(D_5,5,0x8FF),
    DN(___,0,0x000),
    DN(D_5,6,0x8EF),
    DN(___,0,0x8FE),
    DN(Ds5,5,0x8FF),
    DN(___,0,0x000),
    DN(Ds5,6,0x8EF),
    DN(___,0,0x8FE),
    DN(G_5,5,0x8FF),
    DN(___,0,0x000),
    DN(G_5,6,0x8EF),
    DN(___,0,0x8FE),
    DN(As5,5,0x8FF),
    DN(___,0,0x000),
    DN(As5,6,0x8EF),
    DN(___,0,0x000),
    DN(___,0,0x8FE),
    DN(___,0,0x000),
    DN(___,0,0x000),
    DN(___,0,0x000),
    DN(G_5,5,0x8FF),
    DN(___,0,0x000),
    DN(As5,5,0x000),
    DN(___,0,0x000),
    DN(G_5,5,0x000),
    DN(___,0,0x000),
    DN(As5,5,0x000),
    DN(___,0,0x000),
    DN(G_5,5,0x000),
    DN(___,0,0x000),
    DN(As5,5,0x000),
    DN(___,0,0x000),
    DN(C_6,5,0x8FF),
    DN(___,0,0x000),
    DN(C_6,5,0x8EF),
    DN(___,0,0x000),
    DN(C_6,5,0x8FF),
    DN(___,0,0x000),
    DN(C_6,6,0x8FE),
    DN(___,0,0x000),
    DN(___,0,0x000),
    DN(___,0,0x000),
    DN(___,0,0x000),
    DN(___,0,0x000),
    DN(___,0,0x000),
    DN(___,0,0x000),
    DN(D_5,9,0x8FF),
    DN(___,0,0x000),
    DN(___,0,0x000),
    DN(___,0,0x000),
    DN(___,0,0x000),
    DN(___,0,0x000),
    DN(C_6,5,0x000),
    DN(___,0,0x000),
    DN(As5,5,0x000),
    DN(___,0,0x000),
    DN(G_5,5,0x000),
    DN(___,0,0x000),
    DN(F_5,5,0x000),
    DN(___,0,0x000),
    DN(Ds5,5,0x000),
    DN(___,0,0x000),
};
static const unsigned char P193[] = {
    DN(___,11,0x000),
    DN(___,0,0x000),
    DN(G_5,5,0x000),
    DN(___,0,0x000),
    DN(Gs5,5,0x000),
    DN(___,0,0x000),
    DN(G_5,5,0x8FF),
    DN(Gs5,5,0x000),
    DN(Ds5,5,0x000),
    DN(___,0,0x000),
    DN(F_5,5,0x000),
    DN(___,0,0x000),
    DN(D_5,5,0x000),
    DN(___,0,0x000),
    DN(Ds5,5,0x000),
    DN(___,0,0x000),
    DN(Ds5,5,0x8EF),
    DN(___,0,0x000),
    DN(D_5,5,0x8FE),
    DN(___,0,0x000),
    DN(___,0,0x000),
    DN(___,0,0x000),
    DN(D_5,5,0x8FF),
    DN(Ds5,5,0x000),
    DN(F_5,5,0x000),
    DN(___,0,0x000),
    DN(D_5,5,0x000),
    DN(___,0,0x000),
    DN(F_5,5,0x000),
    DN(___,0,0x000),
    DN(As5,5,0x000),
    DN(___,0,0x000),
    DN(B_5,5,0x102),
    DN(___,0,0x102),
    DN(___,0,0x000),
    DN(___,0,0x000),
    DN(B_5,5,0x102),
    DN(___,0,0x102),
    DN(___,0,0x000),
    DN(___,0,0x000),
    DN(C_6,5,0x000),
    DN(___,0,0x000),
    DN(As5,5,0x000),
    DN(___,0,0x000),
    DN(G_5,5,0x000),
    DN(___,0,0x000),
    DN(Cs6,5,0x102),
    DN(___,0,0x102),
    DN(___,0,0x000),
    DN(___,0,0x000),
    DN(Ds6,5,0x000),
    DN(___,0,0x000),
    DN(D_6,5,0x000),
    DN(___,0,0x000),
    DN(___,0,0x000),
    DN(___,0,0x000),
    DN(C_6,5,0x000),
    DN(___,0,0x000),
    DN(___,0,0x000),
    DN(___,0,0x000),
    DN(As5,5,0x000),
    DN(___,0,0x000),
    DN(___,0,0x000),
    DN(___,0,0x000),
};
static const unsigned char P197[] = {
    DN(Gs5,5,0x000),
    DN(___,0,0x000),
    DN(G_5,5,0x000),
    DN(___,0,0x000),
    DN(Gs5,5,0x000),
    DN(___,0,0x000),
    DN(C_6,5,0x8FF),
    DN(As5,5,0x000),
    DN(C_6,5,0x000),
    DN(___,0,0x000),
    DN(As5,5,0x000),
    DN(___,0,0x000),
    DN(G_5,5,0x000),
    DN(___,0,0x000),
    DN(As5,5,0x000),
    DN(___,0,0x000),
    DN(Ds5,5,0x8FF),
    DN(___,0,0x000),
    DN(___,0,0x000),
    DN(___,0,0x000),
    DN(___,0,0x000),
    DN(___,0,0x000),
    DN(D_5,5,0x8FF),
    DN(Ds5,5,0x000),
    DN(F_5,5,0x000),
    DN(___,0,0x000),
    DN(D_5,5,0x000),
    DN(___,0,0x000),
    DN(F_5,5,0x000),
    DN(___,0,0x000),
    DN(As5,5,0x000),
    DN(___,0,0x000),
    DN(C_6,5,0x000),
    DN(___,0,0x000),
    DN(___,0,0x000),
    DN(___,0,0x000),
    DN(___,0,0x000),
    DN(___,0,0x000),
    DN(___,0,0x000),
    DN(___,0,0x000),
    DN(C_6,5,0x000),
    DN(___,0,0x000),
    DN(___,0,0x000),
    DN(___,0,0x000),
    DN(___,0,0x000),
    DN(___,0,0x000),
    DN(___,0,0x202),
    DN(___,0,0x202),
    DN(___,0,0x202),
    DN(___,0,0x202),
    DN(___,0,0x202),
    DN(___,0,0x202),
    DN(___,0,0x202),
    DN(___,0,0x202),
    DN(___,0,0x202),
    DN(___,0,0x202),
    DN(___,0,0x202),
    DN(___,0,0x202),
    DN(___,0,0x202),
    DN(___,0,0x202),
    DN(___,0,0x202),
    DN(___,0,0x202),
    DN(___,0,0x202),
    DN(B_8,9,0x000),
};
static const unsigned char P198[] = {
    DN(Ds3,1,0x8FF),
    DN(___,0,0x000),
    DN(Ds3,1,0x000),
    DN(___,0,0x000),
    DN(Ds4,1,0x000),
    DN(___,0,0x000),
    DN(Ds6,15,0x000),
    DN(D_6,15,0x000),
    DN(Ds6,15,0x000),
    DN(___,0,0x000),
    DN(D_6,15,0x000),
    DN(___,0,0x000),
    DN(As5,15,0x000),
    DN(___,0,0x000),
    DN(D_6,15,0x000),
    DN(___,0,0x000),
    DN(F_3,1,0x000),
    DN(___,0,0x000),
    DN(F_3,1,0x000),
    DN(___,0,0x000),
    DN(F_4,1,0x000),
    DN(___,0,0x000),
    DN(F_5,15,0x000),
    DN(G_5,15,0x000),
    DN(As5,15,0x000),
    DN(___,0,0x000),
    DN(G_5,15,0x000),
    DN(___,0,0x000),
    DN(As5,15,0x000),
    DN(___,0,0x000),
    DN(D_6,15,0x000),
    DN(___,0,0x000),
    DN(G_4,1,0x8FF),
    DN(___,0,0x000),
    DN(___,0,0x000),
    DN(___,0,0x000),
    DN(G_4,1,0x000),
    DN(___,0,0x000),
    DN(___,0,0x000),
    DN(___,0,0x000),
    DN(G_3,1,0x000),
    DN(___,0,0x000),
    DN(G_3,1,0x000),
    DN(___,0,0x000),
    DN(G_3,1,0x000),
    DN(___,0,0x000),
    DN(As4,1,0x000),
    DN(___,0,0x000),
    DN(___,0,0x000),
    DN(___,0,0x000),
    DN(G_3,1,0x000),
    DN(___,0,0x000),
    DN(G_3,1,0x000),
    DN(___,0,0x000),
    DN(C_5,1,0x000),
    DN(___,0,0x000),
    DN(___,0,0x000),
    DN(___,0,0x000),
    DN(G_3,1,0x000),
    DN(___,0,0x000),
    DN(___,0,0x000),
    DN(___,0,0x000),
    DN(___,0,0x000),
    DN(___,0,0x000),
};
static const unsigned char P200[] = {
    DN(C_6,4,0x000),
    DN(___,0,0x000),
    DN(C_6,4,0x000),
    DN(___,0,0x000),
    DN(Ds7,3,0x000),
    DN(___,0,0x000),
    DN(C_8,1,0x000),
    DN(___,0,0x000),
    DN(C_8,1,0x000),
    DN(___,0,0x000),
    DN(C_8,2,0x000),
    DN(___,0,0x000),
    DN(Ds7,3,0x000),
    DN(___,0,0x000),
    DN(C_8,1,0x000),
    DN(___,0,0x000),
    DN(C_6,4,0x000),
    DN(___,0,0x000),
    DN(C_6,4,0x000),
    DN(___,0,0x000),
    DN(Ds7,3,0x000),
    DN(___,0,0x000),
    DN(C_8,1,0x000),
    DN(___,0,0x000),
    DN(C_8,1,0x000),
    DN(___,0,0x000),
    DN(C_8,2,0x000),
    DN(___,0,0x000),
    DN(Ds7,3,0x000),
    DN(___,0,0x000),
    DN(C_8,1,0x000),
    DN(___,0,0x000),
    DN(A_7,10,0x000),
    DN(___,0,0x000),
    DN(___,0,0x000),
    DN(___,0,0x000),
    DN(Ds7,3,0x000),
    DN(___,0,0x000),
    DN(C_8,1,0x000),
    DN(___,0,0x000),
    DN(C_8,1,0x000),
    DN(___,0,0x000),
    DN(C_8,2,0x000),
    DN(___,0,0x000),
    DN(Ds7,3,0x000),
    DN(___,0,0x000),
    DN(C_8,1,0x000),
    DN(___,0,0x000),
    DN(C_8,1,0x000),
    DN(___,0,0x000),
    DN(C_8,2,0x000),
    DN(___,0,0x000),
    DN(Ds7,3,0x000),
    DN(___,0,0x000),
    DN(C_8,1,0x000),
    DN(___,0,0x000),
    DN(C_8,1,0x000),
    DN(___,0,0x000),
    DN(C_8,2,0x000),
    DN(___,0,0x000),
    DN(Ds7,3,0x000),
    DN(Ds7,3,0x000),
    DN(Ds7,3,0x000),
    DN(Ds7,3,0x000),
};
static const unsigned char P209[] = {
    DN(A_7,10,0x000),
    DN(___,0,0x000),
    DN(___,0,0x000),
    DN(___,0,0x000),
    DN(Ds7,3,0x000),
    DN(___,0,0x000),
    DN(C_8,1,0x000),
    DN(___,0,0x000),
    DN(C_8,1,0x000),
    DN(___,0,0x000),
    DN(C_8,2,0x000),
    DN(___,0,0x000),
    DN(Ds7,3,0x000),
    DN(___,0,0x000),
    DN(C_8,1,0x000),
    DN(___,0,0x000),
    DN(C_8,1,0x000),
    DN(___,0,0x000),
    DN(C_8,2,0x000),
    DN(___,0,0x000),
    DN(Ds7,3,0x000),
    DN(___,0,0x000),
    DN(C_8,1,0x000),
    DN(___,0,0x000),
    DN(C_8,1,0x000),
    DN(___,0,0x000),
    DN(C_8,2,0x000),
    DN(___,0,0x000),
    DN(Ds7,3,0x000),
    DN(___,0,0x000),
    DN(C_8,1,0x000),
    DN(___,0,0x000),
    DN(A_7,10,0x000),
    DN(___,0,0x000),
    DN(___,0,0x000),
    DN(___,0,0x000),
    DN(Ds7,3,0x000),
    DN(___,0,0x000),
    DN(C_8,1,0x000),
    DN(___,0,0x000),
    DN(C_8,1,0x000),
    DN(___,0,0x000),
    DN(C_8,2,0x000),
    DN(___,0,0x000),
    DN(Ds7,3,0x000),
    DN(___,0,0x000),
    DN(C_8,1,0x000),
    DN(___,0,0x000),
    DN(C_8,1,0x000),
    DN(___,0,0x000),
    DN(C_8,2,0x000),
    DN(___,0,0x000),
    DN(Ds7,3,0x000),
    DN(___,0,0x000),
    DN(C_8,1,0x000),
    DN(___,0,0x000),
    DN(C_8,1,0x000),
    DN(___,0,0x000),
    DN(C_8,2,0x000),
    DN(___,0,0x000),
    DN(Ds7,3,0x000),
    DN(___,0,0x000),
    DN(Ds7,3,0x000),
    DN(___,0,0x000),
};
static const unsigned char P210[] = {
    DN(Ds6,11,0x000),
    DN(___,0,0x000),
    DN(___,0,0x207),
    DN(___,0,0x214),
    DN(Ds6,11,0xC06),
    DN(___,0,0x000),
    DN(___,0,0x207),
    DN(___,0,0x214),
    DN(D_6,11,0x000),
    DN(___,0,0x000),
    DN(___,0,0x207),
    DN(___,0,0x214),
    DN(D_6,11,0xC06),
    DN(___,0,0x000),
    DN(___,0,0x207),
    DN(___,0,0x214),
    DN(As5,11,0x000),
    DN(___,0,0x000),
    DN(___,0,0x207),
    DN(___,0,0x214),
    DN(As5,11,0xC06),
    DN(___,0,0x000),
    DN(___,0,0x207),
    DN(___,0,0x214),
    DN(G_5,11,0x000),
    DN(___,0,0x000),
    DN(___,0,0x207),
    DN(___,0,0x214),
    DN(G_5,11,0xC06),
    DN(___,0,0x000),
    DN(___,0,0x207),
    DN(___,0,0x214),
    DN(Fs5,11,0x000),
    DN(___,0,0x102),
    DN(___,0,0x102),
    DN(___,0,0x000),
    DN(As5,11,0x000),
    DN(___,0,0x000),
    DN(Fs5,11,0x000),
    DN(___,0,0x102),
    DN(___,0,0x102),
    DN(___,0,0x102),
    DN(___,0,0x000),
    DN(___,0,0x000),
    DN(___,0,0x000),
    DN(___,0,0x000),
    DN(___,0,0x000),
    DN(___,0,0x000),
    DN(___,0,0x000),
    DN(___,0,0x000),
    DN(___,0,0x000),
    DN(___,0,0x000),
    DN(___,0,0x000),
    DN(___,0,0x000),
    DN(___,0,0x000),
    DN(___,0,0x000),
    DN(___,0,0x000),
    DN(___,0,0x000),
    DN(___,0,0x000),
    DN(___,0,0x000),
    DN(Ds3,1,0x000),
    DN(___,0,0x000),
    DN(___,0,0x000),
    DN(___,0,0x000),
};
static const unsigned char P213[] = {
    DN(A_7,10,0x000),
    DN(___,0,0x000),
    DN(___,0,0x000),
    DN(___,0,0x000),
    DN(Ds7,3,0x000),
    DN(___,0,0x000),
    DN(C_8,1,0x000),
    DN(___,0,0x000),
    DN(C_8,1,0x000),
    DN(___,0,0x000),
    DN(C_8,2,0x000),
    DN(___,0,0x000),
    DN(Ds7,3,0x000),
    DN(___,0,0x000),
    DN(C_8,1,0x000),
    DN(___,0,0x000),
    DN(C_8,1,0x000),
    DN(___,0,0x000),
    DN(C_8,2,0x000),
    DN(___,0,0x000),
    DN(Ds7,3,0x000),
    DN(___,0,0x000),
    DN(C_8,1,0x000),
    DN(___,0,0x000),
    DN(C_8,1,0x000),
    DN(___,0,0x000),
    DN(C_8,2,0x000),
    DN(___,0,0x000),
    DN(Ds7,3,0x000),
    DN(Ds7,3,0x000),
    DN(Ds7,3,0x000),
    DN(___,0,0x000),
    DN(A_7,10,0x000),
    DN(___,0,0x000),
    DN(___,0,0x000),
    DN(___,0,0x000),
    DN(Ds7,3,0x000),
    DN(___,0,0x000),
    DN(C_8,1,0x000),
    DN(___,0,0x000),
    DN(C_8,1,0x000),
    DN(___,0,0x000),
    DN(C_8,2,0x000),
    DN(___,0,0x000),
    DN(Ds7,3,0x000),
    DN(___,0,0x000),
    DN(C_8,1,0x000),
    DN(___,0,0x000),
    DN(C_8,1,0x000),
    DN(___,0,0x000),
    DN(C_8,2,0x000),
    DN(___,0,0x000),
    DN(Ds7,3,0x000),
    DN(___,0,0x000),
    DN(C_8,1,0x000),
    DN(___,0,0x000),
    DN(C_8,1,0x000),
    DN(___,0,0x000),
    DN(C_8,2,0x000),
    DN(___,0,0x000),
    DN(Ds7,3,0x000),
    DN(___,0,0x000),
    DN(Ds7,3,0x000),
    DN(Ds7,3,0xB02),
};
static const unsigned char P217[] = {
    DN(A_7,10,0x000),
    DN(___,0,0x000),
    DN(___,0,0x000),
    DN(___,0,0x000),
    DN(Ds7,3,0x000),
    DN(___,0,0x000),
    DN(C_8,1,0x000),
    DN(___,0,0x000),
    DN(C_8,1,0x000),
    DN(___,0,0x000),
    DN(C_8,2,0x000),
    DN(___,0,0x000),
    DN(Ds7,3,0x000),
    DN(___,0,0x000),
    DN(C_8,1,0x000),
    DN(___,0,0x000),
    DN(C_8,1,0x000),
    DN(___,0,0x000),
    DN(C_8,2,0x000),
    DN(___,0,0x000),
    DN(Ds7,3,0x000),
    DN(___,0,0x000),
    DN(C_8,1,0x000),
    DN(___,0,0x000),
    DN(C_8,1,0x000),
    DN(___,0,0x000),
    DN(C_8,2,0x000),
    DN(___,0,0x000),
    DN(Ds7,3,0x000),
    DN(___,0,0x000),
    DN(Ds7,3,0x000),
    DN(Ds7,3,0x000),
    DN(A_7,10,0x000),
    DN(___,0,0x000),
    DN(___,0,0x000),
    DN(___,0,0x000),
    DN(Ds7,3,0x000),
    DN(___,0,0x000),
    DN(C_8,1,0x000),
    DN(___,0,0x000),
    DN(C_8,1,0x000),
    DN(___,0,0x000),
    DN(C_8,2,0x000),
    DN(___,0,0x000),
    DN(Ds7,3,0x000),
    DN(___,0,0x000),
    DN(C_8,1,0x000),
    DN(___,0,0x000),
    DN(C_8,1,0x000),
    DN(___,0,0x000),
    DN(C_8,2,0x000),
    DN(___,0,0x000),
    DN(Ds7,3,0x000),
    DN(___,0,0x000),
    DN(C_8,1,0x000),
    DN(___,0,0x000),
    DN(C_8,1,0x000),
    DN(___,0,0x000),
    DN(C_8,2,0x000),
    DN(___,0,0x000),
    DN(Ds7,3,0x000),
    DN(___,0,0x000),
    DN(Ds7,3,0x000),
    DN(Ds7,3,0x000),
};
static const unsigned char P220[] = {
    DN(___,0,0xF05),
    DN(___,0,0x000),
    DN(___,0,0x000),
    DN(___,0,0x000),
    DN(___,0,0x000),
    DN(___,0,0x000),
    DN(___,0,0x000),
    DN(___,0,0x000),
    DN(___,0,0x000),
    DN(___,0,0x000),
    DN(___,0,0x000),
    DN(___,0,0x000),
    DN(___,0,0x000),
    DN(___,0,0x000),
    DN(___,0,0x000),
    DN(___,0,0x000),
    DN(___,0,0x000),
    DN(___,0,0x000),
    DN(___,0,0x000),
    DN(___,0,0x000),
    DN(___,0,0x000),
    DN(___,0,0x000),
    DN(___,0,0x000),
    DN(___,0,0x000),
    DN(___,0,0x000),
    DN(___,0,0x000),
    DN(___,0,0x000),
    DN(___,0,0x000),
    DN(___,0,0x000),
    DN(___,0,0x000),
    DN(___,0,0x000),
    DN(___,0,0x000),
    DN(___,0,0x000),
    DN(___,0,0x000),
    DN(___,0,0x000),
    DN(___,0,0x000),
    DN(___,0,0x000),
    DN(___,0,0x000),
    DN(___,0,0x000),
    DN(___,0,0x000),
    DN(___,0,0x000),
    DN(___,0,0x000),
    DN(___,0,0x000),
    DN(___,0,0x000),
    DN(___,0,0x000),
    DN(___,0,0x000),
    DN(___,0,0x000),
    DN(___,0,0x000),
    DN(___,0,0x000),
    DN(___,0,0x000),
    DN(___,0,0x000),
    DN(___,0,0x000),
    DN(___,0,0x000),
    DN(___,0,0x000),
    DN(___,0,0x000),
    DN(___,0,0x000),
    DN(___,0,0x000),
    DN(___,0,0x000),
    DN(___,0,0x000),
    DN(___,0,0x000),
    DN(___,0,0x000),
    DN(___,0,0x000),
    DN(___,0,0x000),
    DN(___,0,0x000),
};
static const unsigned char P221[] = {
    DN(C_8,2,0x000),
    DN(___,0,0x000),
    DN(Ds7,3,0x000),
    DN(___,0,0x000),
    DN(___,0,0x000),
    DN(___,0,0xB02),
    DN(___,0,0x000),
    DN(___,0,0x000),
    DN(___,0,0x000),
    DN(___,0,0x000),
    DN(___,0,0x000),
    DN(___,0,0x000),
    DN(___,0,0x000),
    DN(___,0,0x000),
    DN(___,0,0x000),
    DN(___,0,0x000),
    DN(___,0,0x000),
    DN(___,0,0x000),
    DN(___,0,0x000),
    DN(___,0,0x000),
    DN(___,0,0x000),
    DN(___,0,0x000),
    DN(___,0,0x000),
    DN(___,0,0x000),
    DN(___,0,0x000),
    DN(___,0,0x000),
    DN(___,0,0x000),
    DN(___,0,0x000),
    DN(___,0,0x000),
    DN(___,0,0x000),
    DN(___,0,0x000),
    DN(___,0,0x000),
    DN(___,0,0x000),
    DN(___,0,0x000),
    DN(___,0,0x000),
    DN(___,0,0x000),
    DN(___,0,0x000),
    DN(___,0,0x000),
    DN(___,0,0x000),
    DN(___,0,0x000),
    DN(___,0,0x000),
    DN(___,0,0x000),
    DN(___,0,0x000),
    DN(___,0,0x000),
    DN(___,0,0x000),
    DN(___,0,0x000),
    DN(___,0,0x000),
    DN(___,0,0x000),
    DN(___,0,0x000),
    DN(___,0,0x000),
    DN(___,0,0x000),
    DN(___,0,0x000),
    DN(___,0,0x000),
    DN(___,0,0x000),
    DN(___,0,0x000),
    DN(___,0,0x000),
    DN(___,0,0x000),
    DN(___,0,0x000),
    DN(___,0,0x000),
    DN(___,0,0x000),
    DN(___,0,0x000),
    DN(___,0,0x000),
    DN(___,0,0x000),
    DN(___,0,0x000),
};

static const unsigned char* const order1[] = {P109,P70,P119,P124,P134,P135,P139,P185,P189,P193,P197,P157,P180,P181,P155,P156,P157,P157,P180,P210};
static const unsigned char* const order2[] = {P109,P71,P120,P120,P131,P136,P140,P120,P120,P131,P198,P158,P148,P148,P162,P120,P158,P158,P148,P148};
static const unsigned char* const order3[] = {P220,P26,P26,P26,P132,P132,P141,P26,P26,P132,P132,P159,P149,P149,P26,P26,P159,P159,P149,P149};
static const unsigned char* const order4[] = {P221,P27,P122,P127,P133,P138,P142,P27,P122,P133,P200,P160,P27,P122,P164,P122,P164,P217,P209,P213};

static const unsigned char duty_instruments[] = {
8,0,25,128,
8,192,240,128,
8,128,240,128,
8,128,112,128,
8,128,241,128,
127,192,0,128,
8,235,96,128,
111,64,96,128,
79,192,199,128,
8,0,240,128,
};
static const unsigned char wave_instruments[] = {
0,64,0,128,
0,32,3,128,
};
static const unsigned char noise_instruments[] = {
145,0,0,0,0,0,0,0,
81,0,0,0,0,0,0,0,
241,44,2,254,1,254,0,1,
243,109,4,3,5,5,0,0,
};

static const unsigned char waves[] = {
    0,0,255,255,255,255,255,255,255,255,255,255,255,255,255,255,
    14,0,10,169,0,0,0,0,0,220,160,0,255,255,255,255,
};

const hUGESong_t music_gameplay = {7, &order_cnt, order1, order2, order3,order4, duty_instruments, wave_instruments, noise_instruments, NULL, waves};
