#include "hUGEDriver.h"
#include <stddef.h>

static const unsigned char order_cnt = 6;

static const unsigned char P0[] = {
    DN(___,0,0x000),
    DN(___,0,0x000),
    DN(___,0,0x000),
    DN(___,0,0x000),
    DN(___,0,0x000),
    DN(___,0,0x000),
    DN(___,0,0x000),
    DN(___,0,0x000),
    DN(___,0,0x000),
    DN(___,0,0x000),
    DN(___,0,0x000),
    DN(___,0,0x000),
    DN(___,0,0x000),
    DN(___,0,0x000),
    DN(___,0,0x000),
    DN(___,0,0x000),
    DN(___,0,0x000),
    DN(___,0,0x000),
    DN(___,0,0x000),
    DN(___,0,0x000),
    DN(___,0,0x000),
    DN(___,0,0x000),
    DN(___,0,0x000),
    DN(___,0,0x000),
    DN(___,0,0x000),
    DN(___,0,0x000),
    DN(___,0,0x000),
    DN(___,0,0x000),
    DN(___,0,0x000),
    DN(___,0,0x000),
    DN(___,0,0x000),
    DN(___,0,0x000),
    DN(___,0,0x000),
    DN(___,0,0x000),
    DN(___,0,0x000),
    DN(___,0,0x000),
    DN(___,0,0x000),
    DN(___,0,0x000),
    DN(___,0,0x000),
    DN(___,0,0x000),
    DN(___,0,0x000),
    DN(___,0,0x000),
    DN(___,0,0x000),
    DN(___,0,0x000),
    DN(___,0,0x000),
    DN(___,0,0x000),
    DN(___,0,0x000),
    DN(___,0,0x000),
    DN(___,0,0x000),
    DN(___,0,0x000),
    DN(___,0,0x000),
    DN(___,0,0x000),
    DN(___,0,0x000),
    DN(___,0,0x000),
    DN(___,0,0x000),
    DN(___,0,0x000),
    DN(___,0,0x000),
    DN(___,0,0x000),
    DN(___,0,0x000),
    DN(___,0,0x000),
    DN(___,0,0x000),
    DN(___,0,0x000),
    DN(___,0,0x000),
    DN(___,0,0x000),
};
static const unsigned char P3[] = {
    DN(F_7,2,0x000),
    DN(___,0,0x000),
    DN(F_7,2,0x000),
    DN(Fs7,2,0x000),
    DN(G_7,2,0x000),
    DN(Gs7,2,0x000),
    DN(A_7,2,0x000),
    DN(___,0,0x000),
    DN(___,0,0x000),
    DN(___,0,0x000),
    DN(Gs7,2,0x000),
    DN(G_7,2,0x000),
    DN(Fs7,2,0x000),
    DN(F_7,2,0x000),
    DN(E_7,2,0x000),
    DN(Ds7,2,0x000),
    DN(D_7,2,0x000),
    DN(Cs7,2,0x000),
    DN(C_7,2,0x000),
    DN(___,0,0x000),
    DN(___,0,0x000),
    DN(___,0,0x000),
    DN(___,0,0x000),
    DN(___,0,0x000),
    DN(___,0,0x000),
    DN(___,0,0x000),
    DN(___,0,0x000),
    DN(___,0,0x000),
    DN(___,0,0x000),
    DN(___,0,0x000),
    DN(___,0,0x000),
    DN(___,0,0x000),
    DN(C_7,2,0x000),
    DN(Cs7,2,0x000),
    DN(D_7,2,0x000),
    DN(E_7,2,0x000),
    DN(F_7,2,0x000),
    DN(G_7,2,0x000),
    DN(___,0,0x000),
    DN(___,0,0x000),
    DN(Gs7,2,0x000),
    DN(A_7,2,0x000),
    DN(As7,2,0x000),
    DN(___,0,0x000),
    DN(___,0,0x000),
    DN(___,0,0x000),
    DN(___,0,0x000),
    DN(___,0,0x000),
    DN(___,0,0x000),
    DN(F_7,2,0x000),
    DN(___,0,0x000),
    DN(F_7,2,0x000),
    DN(Fs7,2,0x000),
    DN(G_7,2,0x000),
    DN(Gs7,2,0x000),
    DN(A_7,2,0x000),
    DN(___,0,0x000),
    DN(___,0,0x000),
    DN(___,0,0x000),
    DN(___,0,0x000),
    DN(___,0,0x000),
    DN(___,0,0x000),
    DN(___,0,0x000),
    DN(___,0,0x000),
};
static const unsigned char P25[] = {
    DN(___,0,0x000),
    DN(___,0,0x000),
    DN(C_5,3,0x234),
    DN(___,0,0x234),
    DN(___,0,0x234),
    DN(___,0,0x000),
    DN(C_5,3,0x234),
    DN(___,0,0x234),
    DN(___,0,0x234),
    DN(___,0,0x000),
    DN(C_5,3,0x234),
    DN(___,0,0x234),
    DN(___,0,0x234),
    DN(___,0,0x000),
    DN(___,0,0x000),
    DN(___,0,0x000),
    DN(___,0,0x000),
    DN(___,0,0x000),
    DN(___,0,0x000),
    DN(___,0,0x000),
    DN(C_5,2,0x000),
    DN(___,0,0x000),
    DN(___,0,0x000),
    DN(___,0,0x000),
    DN(___,0,0x000),
    DN(___,0,0x000),
    DN(___,0,0x000),
    DN(___,0,0x000),
    DN(___,0,0x000),
    DN(___,0,0x000),
    DN(G_4,2,0x000),
    DN(___,0,0x000),
    DN(C_5,2,0x000),
    DN(___,0,0x000),
    DN(D_5,2,0x000),
    DN(___,0,0x000),
    DN(Ds5,2,0x000),
    DN(___,0,0x000),
    DN(___,0,0x000),
    DN(___,0,0x000),
    DN(D_5,2,0x000),
    DN(___,0,0x000),
    DN(___,0,0x000),
    DN(___,0,0x000),
    DN(C_5,2,0x000),
    DN(___,0,0x000),
    DN(___,0,0x000),
    DN(___,0,0x000),
    DN(As4,2,0x000),
    DN(___,0,0x000),
    DN(C_5,2,0x000),
    DN(___,0,0x000),
    DN(___,0,0x000),
    DN(___,0,0x000),
    DN(___,0,0x000),
    DN(___,0,0x000),
    DN(___,0,0x000),
    DN(___,0,0x000),
    DN(___,0,0x000),
    DN(___,0,0x000),
    DN(___,0,0x000),
    DN(___,0,0x000),
    DN(___,0,0x000),
    DN(___,0,0x000),
};
static const unsigned char P26[] = {
    DN(___,0,0x000),
    DN(___,0,0x000),
    DN(___,0,0x000),
    DN(___,0,0x000),
    DN(C_5,3,0x234),
    DN(___,0,0x234),
    DN(___,0,0x234),
    DN(___,0,0x000),
    DN(C_5,3,0x234),
    DN(___,0,0x234),
    DN(___,0,0x234),
    DN(___,0,0x000),
    DN(C_5,3,0x234),
    DN(___,0,0x234),
    DN(___,0,0x234),
    DN(___,0,0x000),
    DN(___,0,0x000),
    DN(___,0,0x000),
    DN(___,0,0x000),
    DN(___,0,0x000),
    DN(Ds5,1,0xF04),
    DN(___,0,0x000),
    DN(___,0,0x000),
    DN(___,0,0x000),
    DN(___,0,0x000),
    DN(___,0,0x000),
    DN(___,0,0x000),
    DN(___,0,0x000),
    DN(___,0,0x000),
    DN(___,0,0x000),
    DN(C_5,1,0x000),
    DN(___,0,0x000),
    DN(Ds5,1,0x000),
    DN(___,0,0x000),
    DN(F_5,1,0x000),
    DN(___,0,0x000),
    DN(G_5,1,0x000),
    DN(___,0,0x000),
    DN(___,0,0x000),
    DN(___,0,0x000),
    DN(F_5,1,0x000),
    DN(___,0,0x000),
    DN(___,0,0x000),
    DN(___,0,0x000),
    DN(Ds5,1,0x000),
    DN(___,0,0x000),
    DN(___,0,0x000),
    DN(___,0,0x000),
    DN(D_5,1,0x000),
    DN(___,0,0x000),
    DN(Ds5,1,0x000),
    DN(___,0,0x000),
    DN(___,0,0x000),
    DN(___,0,0x000),
    DN(___,0,0x000),
    DN(___,0,0x000),
    DN(___,0,0x000),
    DN(___,0,0x000),
    DN(___,0,0x000),
    DN(___,0,0x000),
    DN(___,0,0x000),
    DN(___,0,0x000),
    DN(___,0,0x000),
    DN(___,0,0x000),
};
static const unsigned char P28[] = {
    DN(___,0,0xF05),
    DN(___,0,0x000),
    DN(___,0,0x000),
    DN(___,0,0x000),
    DN(___,0,0x000),
    DN(___,0,0x000),
    DN(___,0,0x000),
    DN(___,0,0x000),
    DN(___,0,0x000),
    DN(___,0,0x000),
    DN(___,0,0x000),
    DN(___,0,0x000),
    DN(___,0,0x000),
    DN(___,0,0x000),
    DN(___,0,0x000),
    DN(___,0,0x000),
    DN(___,0,0x000),
    DN(___,0,0x000),
    DN(___,0,0x000),
    DN(___,0,0x000),
    DN(C_4,1,0x000),
    DN(___,0,0x000),
    DN(___,0,0x000),
    DN(___,0,0x000),
    DN(___,0,0x000),
    DN(___,0,0x000),
    DN(___,0,0x000),
    DN(___,0,0x000),
    DN(___,0,0x000),
    DN(___,0,0x000),
    DN(___,0,0x000),
    DN(___,0,0x000),
    DN(___,0,0x000),
    DN(___,0,0x000),
    DN(___,0,0x000),
    DN(___,0,0x000),
    DN(Ds4,1,0x000),
    DN(___,0,0x000),
    DN(___,0,0x000),
    DN(___,0,0x000),
    DN(___,0,0x000),
    DN(___,0,0x000),
    DN(___,0,0x000),
    DN(___,0,0x000),
    DN(As3,1,0x000),
    DN(___,0,0x000),
    DN(___,0,0x000),
    DN(___,0,0x000),
    DN(___,0,0x000),
    DN(___,0,0x000),
    DN(C_4,1,0x000),
    DN(___,0,0x000),
    DN(___,0,0x000),
    DN(___,0,0x000),
    DN(___,0,0x000),
    DN(___,0,0x000),
    DN(___,0,0xC07),
    DN(___,0,0xC03),
    DN(___,0,0xC01),
    DN(___,0,0x000),
    DN(___,0,0x000),
    DN(___,0,0x000),
    DN(___,0,0xC00),
    DN(___,0,0x000),
};
static const unsigned char P27[] = {
    DN(D_7,1,0x8FF),
    DN(E_6,1,0x000),
    DN(F_6,1,0x000),
    DN(___,0,0x000),
    DN(___,0,0x8DE),
    DN(___,0,0x000),
    DN(___,0,0x000),
    DN(___,0,0x000),
    DN(___,0,0x000),
    DN(___,0,0x000),
    DN(___,0,0x000),
    DN(___,0,0x000),
    DN(___,0,0x000),
    DN(___,0,0x8FF),
    DN(___,0,0x000),
    DN(___,0,0x000),
    DN(C_7,2,0x000),
    DN(D_7,2,0x000),
    DN(Ds7,2,0x000),
    DN(E_7,2,0x000),
    DN(F_7,2,0x000),
    DN(___,0,0x000),
    DN(___,0,0x000),
    DN(F_7,2,0x000),
    DN(E_7,2,0x000),
    DN(Ds7,2,0x000),
    DN(D_7,2,0x000),
    DN(___,0,0x000),
    DN(___,0,0x000),
    DN(D_7,2,0x000),
    DN(Ds7,2,0x000),
    DN(E_7,2,0x000),
    DN(___,0,0x000),
    DN(___,0,0x000),
    DN(___,0,0x000),
    DN(E_7,2,0x000),
    DN(Ds7,2,0x000),
    DN(D_7,2,0x000),
    DN(Cs7,2,0x000),
    DN(C_7,2,0x000),
    DN(___,0,0x000),
    DN(___,0,0x000),
    DN(___,0,0x000),
    DN(C_7,2,0x000),
    DN(Cs7,2,0x000),
    DN(D_7,2,0x000),
    DN(Ds7,2,0x000),
    DN(E_7,2,0x000),
    DN(F_7,2,0x000),
    DN(Fs7,2,0x000),
    DN(G_7,2,0x000),
    DN(Gs7,2,0x000),
    DN(A_7,2,0x000),
    DN(As7,2,0x000),
    DN(___,0,0x000),
    DN(___,0,0x000),
    DN(___,0,0x000),
    DN(___,0,0x000),
    DN(As7,2,0x000),
    DN(A_7,2,0x000),
    DN(Gs7,2,0x000),
    DN(G_7,2,0x000),
    DN(Fs7,2,0x000),
    DN(F_7,2,0x000),
};
static const unsigned char P32[] = {
    DN(___,0,0x000),
    DN(___,0,0x000),
    DN(___,0,0x000),
    DN(___,0,0x000),
    DN(___,0,0x000),
    DN(___,0,0x000),
    DN(___,0,0x000),
    DN(___,0,0x000),
    DN(___,0,0x000),
    DN(___,0,0x000),
    DN(Gs7,2,0x000),
    DN(G_7,2,0x000),
    DN(Fs7,2,0x000),
    DN(F_7,2,0x000),
    DN(E_7,2,0x000),
    DN(Ds7,2,0x000),
    DN(D_7,2,0x000),
    DN(Cs7,2,0x000),
    DN(C_7,2,0x000),
    DN(___,0,0x000),
    DN(___,0,0x000),
    DN(___,0,0x000),
    DN(___,0,0x000),
    DN(___,0,0x000),
    DN(___,0,0x000),
    DN(___,0,0x000),
    DN(___,0,0x000),
    DN(___,0,0x000),
    DN(___,0,0x000),
    DN(___,0,0x000),
    DN(___,0,0x000),
    DN(___,0,0x000),
    DN(___,0,0x000),
    DN(___,0,0x000),
    DN(___,0,0x000),
    DN(___,0,0x000),
    DN(___,0,0x000),
    DN(___,0,0x000),
    DN(___,0,0x000),
    DN(___,0,0x000),
    DN(___,0,0x000),
    DN(C_7,2,0x000),
    DN(Cs7,2,0x000),
    DN(D_7,2,0x000),
    DN(E_7,2,0x000),
    DN(F_7,2,0x000),
    DN(G_7,2,0x000),
    DN(___,0,0x000),
    DN(___,0,0x000),
    DN(Gs7,2,0x000),
    DN(A_7,2,0x000),
    DN(As7,2,0x000),
    DN(___,0,0x000),
    DN(___,0,0x000),
    DN(___,0,0x000),
    DN(___,0,0x000),
    DN(G_7,2,0x000),
    DN(Fs7,2,0x000),
    DN(B_6,2,0x000),
    DN(___,0,0x000),
    DN(C_7,2,0x000),
    DN(Cs7,2,0x000),
    DN(D_7,2,0x000),
    DN(F_7,2,0xB02),
};

static const unsigned char* const order1[] = {P25,P0,P0};
static const unsigned char* const order2[] = {P26,P0,P0};
static const unsigned char* const order3[] = {P28,P0,P0};
static const unsigned char* const order4[] = {P27,P3,P32};

static const unsigned char duty_instruments[] = {
0,192,135,128,
0,64,199,128,
0,128,242,128,
0,128,248,128,
0,0,241,128,
0,64,241,128,
0,128,241,128,
0,192,241,128,
0,128,248,128,
0,128,248,128,
0,128,248,128,
0,128,248,128,
0,128,248,128,
0,128,248,128,
0,128,248,128,
};
static const unsigned char wave_instruments[] = {
0,32,0,128,
0,32,1,128,
0,32,2,128,
0,32,3,128,
0,32,4,128,
0,32,5,128,
0,32,6,128,
0,32,10,128,
0,32,8,128,
0,32,9,128,
0,32,10,128,
0,32,11,128,
0,32,13,128,
0,32,13,128,
0,32,14,128,
};
static const unsigned char noise_instruments[] = {
247,42,0,0,0,0,0,0,
64,58,2,1,1,1,1,5,
248,0,0,0,0,0,0,0,
248,0,0,0,0,0,0,0,
248,0,0,0,0,0,0,0,
248,0,0,0,0,0,0,0,
248,0,0,0,0,0,0,0,
248,0,0,0,0,0,0,0,
248,0,0,0,0,0,0,0,
248,0,0,0,0,0,0,0,
248,0,0,0,0,0,0,0,
248,0,0,0,0,0,0,0,
248,0,0,0,0,0,0,0,
248,0,0,0,0,0,0,0,
248,0,0,0,0,0,0,0,
};

static const unsigned char waves[] = {
    2,70,120,153,153,152,132,50,17,0,0,0,0,0,0,0,
    2,70,120,153,153,152,135,119,96,0,0,87,0,0,0,0,
    2,70,120,153,153,152,135,119,96,0,0,17,56,128,0,0,
    2,70,120,153,153,152,135,119,96,0,0,17,16,121,183,0,
    2,70,120,149,153,152,135,119,96,0,0,17,16,121,53,220,
    2,70,56,149,153,152,135,119,96,0,0,17,16,51,70,141,
    2,66,56,37,153,146,135,119,96,0,0,65,16,51,70,141,
    2,66,56,37,149,146,135,119,96,0,0,129,16,51,70,141,
    2,66,50,37,149,146,135,119,96,0,0,193,26,51,70,141,
    1,17,17,37,149,146,135,119,102,96,0,193,26,211,70,141,
    1,17,17,35,51,146,135,114,102,96,0,241,26,243,79,143,
    1,17,17,17,17,18,135,114,99,69,103,129,26,247,79,143,
    1,17,17,17,17,18,34,114,99,69,103,134,26,247,239,143,
    1,17,17,17,17,18,34,114,99,69,187,134,26,247,239,143,
    1,35,69,103,137,171,205,204,204,221,203,170,152,201,134,84,
    1,17,17,17,17,18,34,114,99,167,187,236,26,247,239,143,
};

const hUGESong_t music_gameover = {7, &order_cnt, order1, order2, order3,order4, duty_instruments, wave_instruments, noise_instruments, NULL, waves};
